LibreFranklin-Black.ufo
<glyph name="period" format="2">
	<advance width="279"/>
	<unicode hex="002E"/>
	<outline>
		<contour>
			<point x="242" y="29" type="curve"/>
			<point x="242" y="181" type="line"/>
			<point x="242" y="194"/>
			<point x="236" y="201"/>
			<point x="224" y="201" type="curve"/>
			<point x="51" y="201" type="line" smooth="yes"/>
			<point x="40" y="201"/>
			<point x="32" y="194"/>
			<point x="32" y="179" type="curve"/>
			<point x="32" y="25" type="line" smooth="yes"/>
			<point x="32" y="8"/>
			<point x="39" y="0"/>
			<point x="59" y="0" type="curve"/>
			<point x="209" y="0" type="line" smooth="yes"/>
			<point x="233" y="0"/>
			<point x="242" y="8"/>
		</contour>
	</outline>
</glyph>
<glyph name="two" format="2">
  <advance width="673"/>
  <unicode hex="0032"/>
  <outline>
    <contour>
      <point x="256" y="328" type="curve"/>
      <point x="88" y="189" type="line"/>
      <point x="32" y="143"/>
      <point x="29" y="133"/>
      <point x="29" y="124" type="curve"/>
      <point x="29" y="25" type="line" smooth="yes"/>
      <point x="29" y="5"/>
      <point x="36" y="0"/>
      <point x="56" y="0" type="curve"/>
      <point x="615" y="0" type="line" smooth="yes"/>
      <point x="632" y="0"/>
      <point x="640" y="10"/>
      <point x="640" y="22" type="curve"/>
      <point x="640" y="166" type="line" smooth="yes"/>
      <point x="640" y="180"/>
      <point x="631" y="185"/>
      <point x="617" y="185" type="curve"/>
      <point x="332" y="185" type="line" smooth="yes"/>
      <point x="315" y="185"/>
      <point x="317" y="191"/>
      <point x="326" y="197" type="curve"/>
      <point x="501" y="314" type="line" smooth="yes"/>
      <point x="599" y="380"/>
      <point x="633" y="439"/>
      <point x="633" y="516" type="curve"/>
      <point x="633" y="656"/>
      <point x="520" y="752"/>
      <point x="338" y="752" type="curve"/>
      <point x="204" y="752"/>
      <point x="111" y="696"/>
      <point x="37" y="575" type="curve"/>
      <point x="28" y="561"/>
      <point x="30" y="544"/>
      <point x="46" y="536" type="curve"/>
      <point x="165" y="477" type="line" smooth="yes"/>
      <point x="181" y="469"/>
      <point x="192" y="472"/>
      <point x="197" y="481" type="curve"/>
      <point x="241" y="562"/>
      <point x="275" y="591"/>
      <point x="326" y="591" type="curve"/>
      <point x="381" y="591"/>
      <point x="413" y="558"/>
      <point x="413" y="514" type="curve"/>
      <point x="413" y="466"/>
      <point x="394" y="442"/>
    </contour>
  </outline>
</glyph>
<glyph name="colon" format="2">
  <advance width="279"/>
  <unicode hex="003A"/>
  <outline>
    <contour>
      <point x="242" y="357" type="curve"/>
      <point x="242" y="505" type="line"/>
      <point x="242" y="518"/>
      <point x="236" y="525"/>
      <point x="224" y="525" type="curve"/>
      <point x="51" y="525" type="line" smooth="yes"/>
      <point x="40" y="525"/>
      <point x="32" y="518"/>
      <point x="32" y="503" type="curve"/>
      <point x="32" y="354" type="line" smooth="yes"/>
      <point x="32" y="337"/>
      <point x="39" y="328"/>
      <point x="59" y="328" type="curve"/>
      <point x="209" y="328" type="line" smooth="yes"/>
      <point x="233" y="328"/>
      <point x="242" y="337"/>
    </contour>
    <contour>
      <point x="242" y="32" type="curve"/>
      <point x="242" y="180" type="line"/>
      <point x="242" y="193"/>
      <point x="236" y="200"/>
      <point x="224" y="200" type="curve"/>
      <point x="51" y="200" type="line" smooth="yes"/>
      <point x="40" y="200"/>
      <point x="32" y="193"/>
      <point x="32" y="178" type="curve"/>
      <point x="32" y="29" type="line" smooth="yes"/>
      <point x="32" y="12"/>
      <point x="39" y="3"/>
      <point x="59" y="3" type="curve"/>
      <point x="209" y="3" type="line" smooth="yes"/>
      <point x="233" y="3"/>
      <point x="242" y="12"/>
    </contour>
  </outline>
</glyph>
<glyph name="B" format="2">
  <advance width="739"/>
  <unicode hex="0042"/>
  <outline>
    <contour>
      <point x="75" y="0" type="curve"/>
      <point x="75" y="0" type="line"/>
      <point x="391" y="0" type="line" smooth="yes"/>
      <point x="607" y="0"/>
      <point x="710" y="65"/>
      <point x="710" y="202" type="curve"/>
      <point x="710" y="287"/>
      <point x="671" y="338"/>
      <point x="561" y="379" type="curve"/>
      <point x="558" y="380"/>
      <point x="558" y="385"/>
      <point x="561" y="386" type="curve"/>
      <point x="661" y="432"/>
      <point x="692" y="477"/>
      <point x="692" y="546" type="curve"/>
      <point x="692" y="675"/>
      <point x="582" y="742"/>
      <point x="375" y="742" type="curve"/>
      <point x="77" y="742" type="line" smooth="yes"/>
      <point x="62" y="742"/>
      <point x="52" y="731"/>
      <point x="52" y="716" type="curve"/>
      <point x="52" y="22" type="line" smooth="yes"/>
      <point x="52" y="10"/>
      <point x="61" y="0"/>
    </contour>
    <contour>
      <point x="386" y="150" type="curve"/>
      <point x="296" y="150" type="line"/>
      <point x="283" y="150"/>
      <point x="279" y="157"/>
      <point x="279" y="172" type="curve"/>
      <point x="279" y="277" type="line" smooth="yes"/>
      <point x="279" y="292"/>
      <point x="285" y="298"/>
      <point x="302" y="298" type="curve"/>
      <point x="391" y="298" type="line" smooth="yes"/>
      <point x="441" y="298"/>
      <point x="474" y="268"/>
      <point x="474" y="227" type="curve"/>
      <point x="474" y="188"/>
      <point x="444" y="150"/>
    </contour>
    <contour>
      <point x="391" y="452" type="curve"/>
      <point x="296" y="452" type="line"/>
      <point x="283" y="452"/>
      <point x="279" y="459"/>
      <point x="279" y="474" type="curve"/>
      <point x="279" y="572" type="line" smooth="yes"/>
      <point x="279" y="587"/>
      <point x="285" y="592"/>
      <point x="302" y="592" type="curve"/>
      <point x="384" y="592" type="line" smooth="yes"/>
      <point x="431" y="592"/>
      <point x="468" y="564"/>
      <point x="468" y="520" type="curve"/>
      <point x="468" y="481"/>
      <point x="438" y="452"/>
    </contour>
  </outline>
</glyph>
<glyph name="D" format="2">
  <advance width="771"/>
  <unicode hex="0044"/>
  <anchor x="390" y="371" name="center"/>
  <anchor x="390" y="742" name="top"/>
  <outline>
    <contour>
      <point x="79" y="742" type="curve"/>
      <point x="79" y="742" type="line"/>
      <point x="59" y="742"/>
      <point x="52" y="736"/>
      <point x="52" y="717" type="curve"/>
      <point x="52" y="30" type="line" smooth="yes"/>
      <point x="52" y="8"/>
      <point x="61" y="0"/>
      <point x="81" y="0" type="curve"/>
      <point x="344" y="0" type="line" smooth="yes"/>
      <point x="607" y="0"/>
      <point x="740" y="157"/>
      <point x="740" y="372" type="curve"/>
      <point x="740" y="583"/>
      <point x="612" y="732"/>
      <point x="345" y="741" type="curve"/>
      <point x="287" y="743"/>
      <point x="146" y="742"/>
    </contour>
    <contour>
      <point x="289" y="585" type="curve"/>
      <point x="289" y="585" type="line"/>
      <point x="313" y="585" type="line" smooth="yes"/>
      <point x="443" y="585"/>
      <point x="502" y="513"/>
      <point x="502" y="374" type="curve"/>
      <point x="502" y="215"/>
      <point x="425" y="157"/>
      <point x="300" y="157" type="curve"/>
      <point x="293" y="157" type="line" smooth="yes"/>
      <point x="282" y="157"/>
      <point x="279" y="160"/>
      <point x="279" y="172" type="curve"/>
      <point x="279" y="571" type="line" smooth="yes"/>
      <point x="279" y="582"/>
      <point x="282" y="585"/>
    </contour>
  </outline>
</glyph>
<glyph name="O" format="2">
  <advance width="780"/>
  <unicode hex="004F"/>
  <guideline x="-606" y="431" angle="90"/>
  <anchor x="390" y="371" name="center"/>
  <anchor x="483" y="10" name="ogonek"/>
  <anchor x="390" y="742" name="top"/>
  <anchor x="582" y="742" name="topright"/>
  <anchor x="20" y="742" name="topleft"/>
  <anchor x="392" y="0" name="bottom"/>
  <outline>
    <contour>
      <point x="391" y="-10" type="curve"/>
      <point x="391" y="-10" type="line"/>
      <point x="609" y="-10"/>
      <point x="749" y="139"/>
      <point x="749" y="369" type="curve"/>
      <point x="749" y="601"/>
      <point x="606" y="752"/>
      <point x="391" y="752" type="curve"/>
      <point x="174" y="752"/>
      <point x="31" y="601"/>
      <point x="31" y="369" type="curve"/>
      <point x="31" y="138"/>
      <point x="170" y="-10"/>
    </contour>
    <contour>
      <point x="391" y="146" type="curve"/>
      <point x="391" y="146" type="line"/>
      <point x="302" y="146"/>
      <point x="269" y="206"/>
      <point x="269" y="366" type="curve"/>
      <point x="269" y="531"/>
      <point x="304" y="598"/>
      <point x="391" y="598" type="curve"/>
      <point x="476" y="598"/>
      <point x="511" y="531"/>
      <point x="511" y="366" type="curve"/>
      <point x="511" y="206"/>
      <point x="478" y="146"/>
    </contour>
  </outline>
</glyph>
<glyph name="P" format="2">
  <advance width="731"/>
  <unicode hex="0050"/>
  <outline>
    <contour>
      <point x="703" y="501" type="curve"/>
      <point x="703" y="501" type="line"/>
      <point x="703" y="662"/>
      <point x="566" y="742"/>
      <point x="402" y="742" type="curve"/>
      <point x="71" y="742" type="line" smooth="yes"/>
      <point x="59" y="742"/>
      <point x="52" y="734"/>
      <point x="52" y="719" type="curve"/>
      <point x="52" y="25" type="line" smooth="yes"/>
      <point x="52" y="8"/>
      <point x="58" y="0"/>
      <point x="78" y="0" type="curve"/>
      <point x="246" y="0" type="line" smooth="yes"/>
      <point x="269" y="0"/>
      <point x="279" y="8"/>
      <point x="279" y="29" type="curve"/>
      <point x="279" y="255" type="line" smooth="yes"/>
      <point x="279" y="262"/>
      <point x="282" y="266"/>
      <point x="291" y="266" type="curve"/>
      <point x="428" y="266" type="line" smooth="yes"/>
      <point x="591" y="266"/>
      <point x="703" y="355"/>
    </contour>
    <contour>
      <point x="471" y="504" type="curve"/>
      <point x="471" y="504" type="line"/>
      <point x="471" y="461"/>
      <point x="442" y="426"/>
      <point x="394" y="426" type="curve"/>
      <point x="296" y="426" type="line" smooth="yes"/>
      <point x="283" y="426"/>
      <point x="279" y="433"/>
      <point x="279" y="448" type="curve"/>
      <point x="279" y="561" type="line" smooth="yes"/>
      <point x="279" y="576"/>
      <point x="285" y="582"/>
      <point x="302" y="582" type="curve"/>
      <point x="388" y="582" type="line" smooth="yes"/>
      <point x="434" y="582"/>
      <point x="471" y="552"/>
    </contour>
  </outline>
</glyph>
<glyph name="R" format="2">
	<advance width="739"/>
	<unicode hex="0052"/>
	<anchor x="358" y="742" name="top"/>
	<anchor x="368" y="0" name="bottom"/>
	<outline>
		<contour>
			<point x="701" y="32" type="curve"/>
			<point x="701" y="32" type="line"/>
			<point x="575" y="312" type="line" smooth="yes"/>
			<point x="572" y="320"/>
			<point x="572" y="328"/>
			<point x="579" y="331" type="curve"/>
			<point x="655" y="360"/>
			<point x="710" y="436"/>
			<point x="710" y="530" type="curve"/>
			<point x="710" y="664"/>
			<point x="598" y="742"/>
			<point x="405" y="742" type="curve"/>
			<point x="71" y="742" type="line" smooth="yes"/>
			<point x="59" y="742"/>
			<point x="52" y="734"/>
			<point x="52" y="719" type="curve"/>
			<point x="52" y="25" type="line" smooth="yes"/>
			<point x="52" y="8"/>
			<point x="58" y="0"/>
			<point x="78" y="0" type="curve"/>
			<point x="246" y="0" type="line" smooth="yes"/>
			<point x="269" y="0"/>
			<point x="279" y="8"/>
			<point x="279" y="29" type="curve"/>
			<point x="279" y="284" type="line" smooth="yes"/>
			<point x="279" y="287"/>
			<point x="282" y="295"/>
			<point x="291" y="295" type="curve"/>
			<point x="337" y="295" type="line" smooth="yes"/>
			<point x="356" y="295"/>
			<point x="364" y="290"/>
			<point x="368" y="279" type="curve"/>
			<point x="462" y="21" type="line" smooth="yes"/>
			<point x="466" y="7"/>
			<point x="475" y="0"/>
			<point x="489" y="0" type="curve"/>
			<point x="683" y="0" type="line" smooth="yes"/>
			<point x="699" y="0"/>
			<point x="708" y="15"/>
		</contour>
		<contour>
			<point x="396" y="444" type="curve"/>
			<point x="396" y="444" type="line"/>
			<point x="296" y="444" type="line" smooth="yes"/>
			<point x="283" y="444"/>
			<point x="279" y="450"/>
			<point x="279" y="465" type="curve"/>
			<point x="279" y="574" type="line" smooth="yes"/>
			<point x="279" y="589"/>
			<point x="285" y="594"/>
			<point x="302" y="594" type="curve"/>
			<point x="390" y="594" type="line" smooth="yes"/>
			<point x="435" y="594"/>
			<point x="475" y="567"/>
			<point x="475" y="516" type="curve"/>
			<point x="475" y="473"/>
			<point x="447" y="444"/>
		</contour>
	</outline>
</glyph>
<glyph name="Z" format="2">
  <advance width="714"/>
  <unicode hex="005A"/>
  <anchor x="371" y="742" name="top"/>
  <anchor x="347" y="0" name="bottom"/>
  <outline>
    <contour>
      <point x="52" y="0" type="curve"/>
      <point x="52" y="0" type="line"/>
      <point x="653" y="0" type="line" smooth="yes"/>
      <point x="670" y="0"/>
      <point x="677" y="10"/>
      <point x="677" y="22" type="curve"/>
      <point x="677" y="147" type="line" smooth="yes"/>
      <point x="677" y="161"/>
      <point x="669" y="166"/>
      <point x="655" y="166" type="curve"/>
      <point x="358" y="166" type="line" smooth="yes"/>
      <point x="349" y="166"/>
      <point x="339" y="169"/>
      <point x="346" y="180" type="curve"/>
      <point x="666" y="630" type="line" smooth="yes"/>
      <point x="679" y="648"/>
      <point x="683" y="656"/>
      <point x="683" y="671" type="curve"/>
      <point x="683" y="722" type="line" smooth="yes"/>
      <point x="683" y="734"/>
      <point x="676" y="742"/>
      <point x="664" y="742" type="curve"/>
      <point x="77" y="742" type="line" smooth="yes"/>
      <point x="66" y="742"/>
      <point x="59" y="734"/>
      <point x="59" y="721" type="curve"/>
      <point x="59" y="601" type="line" smooth="yes"/>
      <point x="59" y="583"/>
      <point x="64" y="577"/>
      <point x="81" y="577" type="curve"/>
      <point x="346" y="577" type="line" smooth="yes"/>
      <point x="360" y="577"/>
      <point x="362" y="572"/>
      <point x="355" y="561" type="curve"/>
      <point x="47" y="121" type="line" smooth="yes"/>
      <point x="28" y="94"/>
      <point x="26" y="91"/>
      <point x="26" y="70" type="curve"/>
      <point x="26" y="25" type="line" smooth="yes"/>
      <point x="26" y="5"/>
      <point x="32" y="0"/>
    </contour>
  </outline>
</glyph>
<glyph name="backslash" format="2">
  <advance width="380"/>
  <unicode hex="005C"/>
  <outline>
    <contour>
      <point x="279" y="0" type="curve"/>
      <point x="279" y="0" type="line"/>
      <point x="362" y="0" type="line" smooth="yes"/>
      <point x="377" y="0"/>
      <point x="382" y="7"/>
      <point x="378" y="19" type="curve"/>
      <point x="129" y="724" type="line" smooth="yes"/>
      <point x="125" y="735"/>
      <point x="115" y="742"/>
      <point x="103" y="742" type="curve"/>
      <point x="20" y="742" type="line" smooth="yes"/>
      <point x="0" y="742"/>
      <point x="-5" y="732"/>
      <point x="3" y="709" type="curve"/>
      <point x="244" y="26" type="line" smooth="yes"/>
      <point x="251" y="6"/>
      <point x="262" y="0"/>
    </contour>
  </outline>
</glyph>
<glyph name="f" format="2">
  <advance width="418"/>
  <unicode hex="0066"/>
  <outline>
    <contour>
      <point x="375" y="530" type="curve"/>
      <point x="375" y="530" type="line"/>
      <point x="312" y="530" type="line" smooth="yes"/>
      <point x="304" y="530"/>
      <point x="299" y="533"/>
      <point x="299" y="543" type="curve"/>
      <point x="299" y="561" type="line" smooth="yes"/>
      <point x="299" y="589"/>
      <point x="321" y="612"/>
      <point x="344" y="612" type="curve"/>
      <point x="387" y="612" type="line" smooth="yes"/>
      <point x="399" y="612"/>
      <point x="405" y="621"/>
      <point x="405" y="632" type="curve"/>
      <point x="404" y="716" type="line"/>
      <point x="404" y="732"/>
      <point x="394" y="742"/>
      <point x="375" y="742" type="curve"/>
      <point x="262" y="742" type="line" smooth="yes"/>
      <point x="165" y="742"/>
      <point x="104" y="688"/>
      <point x="104" y="601" type="curve"/>
      <point x="104" y="548" type="line" smooth="yes"/>
      <point x="104" y="535"/>
      <point x="101" y="530"/>
      <point x="90" y="530" type="curve"/>
      <point x="42" y="530" type="line" smooth="yes"/>
      <point x="25" y="530"/>
      <point x="18" y="520"/>
      <point x="18" y="508" type="curve"/>
      <point x="18" y="414" type="line" smooth="yes"/>
      <point x="18" y="400"/>
      <point x="26" y="395"/>
      <point x="40" y="395" type="curve"/>
      <point x="96" y="395" type="line" smooth="yes"/>
      <point x="102" y="395"/>
      <point x="104" y="392"/>
      <point x="104" y="385" type="curve"/>
      <point x="104" y="20" type="line" smooth="yes"/>
      <point x="104" y="7"/>
      <point x="111" y="0"/>
      <point x="122" y="0" type="curve"/>
      <point x="285" y="0" type="line" smooth="yes"/>
      <point x="297" y="0"/>
      <point x="304" y="7"/>
      <point x="304" y="22" type="curve"/>
      <point x="304" y="383" type="line" smooth="yes"/>
      <point x="304" y="391"/>
      <point x="309" y="395"/>
      <point x="316" y="395" type="curve"/>
      <point x="378" y="395" type="line" smooth="yes"/>
      <point x="391" y="395"/>
      <point x="400" y="400"/>
      <point x="400" y="414" type="curve"/>
      <point x="400" y="508" type="line" smooth="yes"/>
      <point x="400" y="520"/>
      <point x="392" y="530"/>
    </contour>
  </outline>
</glyph>
<glyph name="n" format="2">
  <advance width="604"/>
  <unicode hex="006E"/>
  <anchor x="304" y="530" name="top"/>
  <anchor x="304" y="0" name="bottom"/>
  <outline>
    <contour>
      <point x="67" y="0" type="curve"/>
      <point x="67" y="0" type="line"/>
      <point x="208" y="0" type="line" smooth="yes"/>
      <point x="232" y="0"/>
      <point x="241" y="8"/>
      <point x="241" y="29" type="curve"/>
      <point x="241" y="349" type="line"/>
      <point x="260" y="383"/>
      <point x="284" y="399"/>
      <point x="315" y="399" type="curve"/>
      <point x="347" y="399"/>
      <point x="368" y="381"/>
      <point x="368" y="351" type="curve"/>
      <point x="368" y="25" type="line" smooth="yes"/>
      <point x="368" y="6"/>
      <point x="374" y="0"/>
      <point x="391" y="0" type="curve"/>
      <point x="538" y="0" type="line" smooth="yes"/>
      <point x="559" y="0"/>
      <point x="568" y="10"/>
      <point x="568" y="30" type="curve"/>
      <point x="568" y="378" type="line" smooth="yes"/>
      <point x="568" y="477"/>
      <point x="504" y="540"/>
      <point x="411" y="540" type="curve"/>
      <point x="349" y="540"/>
      <point x="294" y="507"/>
      <point x="252" y="461" type="curve"/>
      <point x="244" y="453"/>
      <point x="239" y="457"/>
      <point x="239" y="465" type="curve"/>
      <point x="239" y="510" type="line" smooth="yes"/>
      <point x="239" y="522"/>
      <point x="233" y="530"/>
      <point x="221" y="530" type="curve"/>
      <point x="60" y="530" type="line" smooth="yes"/>
      <point x="48" y="530"/>
      <point x="41" y="521"/>
      <point x="41" y="507" type="curve"/>
      <point x="41" y="25" type="line" smooth="yes"/>
      <point x="41" y="7"/>
      <point x="48" y="0"/>
    </contour>
  </outline>
</glyph>
<glyph name="r" format="2">
  <advance width="454"/>
  <unicode hex="0072"/>
  <anchor x="232" y="530" name="top"/>
  <anchor x="153" y="0" name="bottom"/>
  <outline>
    <contour>
      <point x="67" y="0" type="curve"/>
      <point x="67" y="0" type="line"/>
      <point x="208" y="0" type="line" smooth="yes"/>
      <point x="231" y="0"/>
      <point x="241" y="8"/>
      <point x="241" y="29" type="curve"/>
      <point x="241" y="295" type="line" smooth="yes"/>
      <point x="241" y="330"/>
      <point x="283" y="363"/>
      <point x="327" y="363" type="curve"/>
      <point x="346" y="363"/>
      <point x="382" y="360"/>
      <point x="413" y="352" type="curve"/>
      <point x="425" y="349"/>
      <point x="433" y="355"/>
      <point x="433" y="368" type="curve"/>
      <point x="433" y="520" type="line" smooth="yes"/>
      <point x="433" y="534"/>
      <point x="419" y="540"/>
      <point x="396" y="540" type="curve"/>
      <point x="349" y="540"/>
      <point x="283" y="500"/>
      <point x="251" y="451" type="curve"/>
      <point x="244" y="442"/>
      <point x="234" y="444"/>
      <point x="234" y="454" type="curve"/>
      <point x="234" y="510" type="line" smooth="yes"/>
      <point x="234" y="522"/>
      <point x="227" y="530"/>
      <point x="216" y="530" type="curve"/>
      <point x="60" y="530" type="line" smooth="yes"/>
      <point x="48" y="530"/>
      <point x="41" y="522"/>
      <point x="41" y="507" type="curve"/>
      <point x="41" y="25" type="line" smooth="yes"/>
      <point x="41" y="8"/>
      <point x="47" y="0"/>
    </contour>
  </outline>
</glyph>
<glyph name="w" format="2">
  <advance width="832"/>
  <unicode hex="0077"/>
  <anchor x="415" y="530" name="top"/>
  <outline>
    <contour>
      <point x="798" y="530" type="curve"/>
      <point x="798" y="530" type="line"/>
      <point x="698" y="530" type="line" smooth="yes"/>
      <point x="686" y="530"/>
      <point x="677" y="521"/>
      <point x="672" y="510" type="curve"/>
      <point x="604" y="297" type="line" smooth="yes"/>
      <point x="599" y="283"/>
      <point x="592" y="284"/>
      <point x="589" y="296" type="curve"/>
      <point x="526" y="510" type="line" smooth="yes"/>
      <point x="523" y="521"/>
      <point x="512" y="530"/>
      <point x="501" y="530" type="curve"/>
      <point x="392" y="530" type="line" smooth="yes"/>
      <point x="380" y="530"/>
      <point x="369" y="521"/>
      <point x="366" y="510" type="curve"/>
      <point x="301" y="297" type="line" smooth="yes"/>
      <point x="296" y="283"/>
      <point x="289" y="284"/>
      <point x="286" y="296" type="curve"/>
      <point x="217" y="510" type="line" smooth="yes"/>
      <point x="214" y="521"/>
      <point x="203" y="530"/>
      <point x="191" y="530" type="curve"/>
      <point x="36" y="530" type="line" smooth="yes"/>
      <point x="20" y="530"/>
      <point x="12" y="515"/>
      <point x="17" y="501" type="curve"/>
      <point x="180" y="22" type="line" smooth="yes"/>
      <point x="185" y="6"/>
      <point x="193" y="0"/>
      <point x="208" y="0" type="curve"/>
      <point x="315" y="0" type="line" smooth="yes"/>
      <point x="330" y="0"/>
      <point x="335" y="5"/>
      <point x="339" y="18" type="curve"/>
      <point x="409" y="232" type="line" smooth="yes"/>
      <point x="413" y="246"/>
      <point x="420" y="246"/>
      <point x="425" y="232" type="curve"/>
      <point x="489" y="22" type="line" smooth="yes"/>
      <point x="494" y="6"/>
      <point x="502" y="0"/>
      <point x="518" y="0" type="curve"/>
      <point x="622" y="0" type="line" smooth="yes"/>
      <point x="636" y="0"/>
      <point x="641" y="5"/>
      <point x="645" y="18" type="curve"/>
      <point x="815" y="501" type="line" smooth="yes"/>
      <point x="821" y="515"/>
      <point x="814" y="530"/>
    </contour>
  </outline>
</glyph>
<glyph name="braceright" format="2">
  <advance width="406"/>
  <unicode hex="007D"/>
  <outline>
    <contour>
      <point x="290" y="606" type="line"/>
      <point x="290" y="699"/>
      <point x="189" y="742"/>
      <point x="110" y="742" type="curve" smooth="yes"/>
      <point x="30" y="742" type="line" smooth="yes"/>
      <point x="19" y="742"/>
      <point x="15" y="738"/>
      <point x="15" y="729" type="curve" smooth="yes"/>
      <point x="15" y="649" type="line" smooth="yes"/>
      <point x="15" y="640"/>
      <point x="21" y="635"/>
      <point x="30" y="635" type="curve" smooth="yes"/>
      <point x="67" y="635" type="line" smooth="yes"/>
      <point x="131" y="635"/>
      <point x="131" y="608"/>
      <point x="131" y="582" type="curve" smooth="yes"/>
      <point x="131" y="392" type="line" smooth="yes"/>
      <point x="134" y="324"/>
      <point x="198" y="303"/>
      <point x="245" y="297" type="curve" smooth="yes"/>
      <point x="253" y="296"/>
      <point x="254" y="292"/>
      <point x="245" y="291" type="curve" smooth="yes"/>
      <point x="199" y="287"/>
      <point x="134" y="271"/>
      <point x="131" y="187" type="curve"/>
      <point x="131" y="-5" type="line" smooth="yes"/>
      <point x="131" y="-43"/>
      <point x="117" y="-58"/>
      <point x="67" y="-58" type="curve" smooth="yes"/>
      <point x="33" y="-58" type="line" smooth="yes"/>
      <point x="21" y="-58"/>
      <point x="15" y="-63"/>
      <point x="15" y="-74" type="curve" smooth="yes"/>
      <point x="15" y="-147" type="line" smooth="yes"/>
      <point x="15" y="-160"/>
      <point x="20" y="-165"/>
      <point x="33" y="-165" type="curve" smooth="yes"/>
      <point x="107" y="-165" type="line" smooth="yes"/>
      <point x="189" y="-165"/>
      <point x="290" y="-124"/>
      <point x="290" y="-29" type="curve" smooth="yes"/>
      <point x="290" y="168" type="line" smooth="yes"/>
      <point x="290" y="216"/>
      <point x="320" y="248"/>
      <point x="394" y="248" type="curve" smooth="yes"/>
      <point x="401" y="248"/>
      <point x="406" y="253"/>
      <point x="406" y="268" type="curve" smooth="yes"/>
      <point x="406" y="321" type="line" smooth="yes"/>
      <point x="406" y="336"/>
      <point x="401" y="341"/>
      <point x="394" y="341" type="curve" smooth="yes"/>
      <point x="319" y="341"/>
      <point x="290" y="365"/>
      <point x="290" y="425" type="curve" smooth="yes"/>
      <point x="290" y="606" type="line"/>
    </contour>
  </outline>
</glyph>
<glyph name="exclamdown" format="2">
  <advance width="277"/>
  <unicode hex="00A1"/>
  <outline>
    <contour>
      <point x="244" y="353" type="curve"/>
      <point x="244" y="353" type="line"/>
      <point x="244" y="501" type="line" smooth="yes"/>
      <point x="244" y="522"/>
      <point x="235" y="530"/>
      <point x="211" y="530" type="curve"/>
      <point x="61" y="530" type="line" smooth="yes"/>
      <point x="41" y="530"/>
      <point x="34" y="522"/>
      <point x="34" y="505" type="curve"/>
      <point x="34" y="355" type="line" smooth="yes"/>
      <point x="34" y="340"/>
      <point x="42" y="333"/>
      <point x="53" y="333" type="curve"/>
      <point x="226" y="333" type="line" smooth="yes"/>
      <point x="238" y="333"/>
      <point x="244" y="340"/>
    </contour>
    <contour>
      <point x="253" y="-144" type="curve"/>
      <point x="253" y="-144" type="line"/>
      <point x="205" y="236" type="line" smooth="yes"/>
      <point x="203" y="256"/>
      <point x="195" y="264"/>
      <point x="172" y="264" type="curve"/>
      <point x="103" y="264" type="line" smooth="yes"/>
      <point x="83" y="264"/>
      <point x="80" y="256"/>
      <point x="77" y="239" type="curve"/>
      <point x="27" y="-142" type="line" smooth="yes"/>
      <point x="25" y="-157"/>
      <point x="34" y="-165"/>
      <point x="46" y="-165" type="curve"/>
      <point x="235" y="-165" type="line" smooth="yes"/>
      <point x="246" y="-165"/>
      <point x="255" y="-157"/>
    </contour>
  </outline>
</glyph>
<glyph name="registered" format="2">
  <advance width="545"/>
  <unicode hex="00AE"/>
  <outline>
    <contour>
      <point x="273" y="275" type="curve"/>
      <point x="273" y="275" type="line"/>
      <point x="404" y="275"/>
      <point x="511" y="381"/>
      <point x="511" y="513" type="curve"/>
      <point x="511" y="645"/>
      <point x="404" y="752"/>
      <point x="273" y="752" type="curve"/>
      <point x="140" y="752"/>
      <point x="34" y="645"/>
      <point x="34" y="513" type="curve"/>
      <point x="34" y="381"/>
      <point x="140" y="275"/>
    </contour>
    <contour>
      <point x="273" y="346" type="curve"/>
      <point x="273" y="346" type="line"/>
      <point x="174" y="346"/>
      <point x="112" y="411"/>
      <point x="112" y="513" type="curve"/>
      <point x="112" y="614"/>
      <point x="174" y="681"/>
      <point x="273" y="681" type="curve"/>
      <point x="370" y="681"/>
      <point x="433" y="614"/>
      <point x="433" y="513" type="curve"/>
      <point x="433" y="411"/>
      <point x="370" y="346"/>
    </contour>
    <contour>
      <point x="382" y="404" type="curve"/>
      <point x="382" y="404" type="line"/>
      <point x="341" y="497" type="line" smooth="yes"/>
      <point x="341" y="500"/>
      <point x="341" y="502"/>
      <point x="343" y="503" type="curve"/>
      <point x="367" y="513"/>
      <point x="385" y="535"/>
      <point x="385" y="564" type="curve"/>
      <point x="385" y="606"/>
      <point x="348" y="630"/>
      <point x="287" y="630" type="curve"/>
      <point x="178" y="630" type="line" smooth="yes"/>
      <point x="174" y="630"/>
      <point x="172" y="628"/>
      <point x="172" y="623" type="curve"/>
      <point x="172" y="402" type="line" smooth="yes"/>
      <point x="172" y="397"/>
      <point x="174" y="394"/>
      <point x="180" y="394" type="curve"/>
      <point x="233" y="394" type="line" smooth="yes"/>
      <point x="241" y="394"/>
      <point x="244" y="397"/>
      <point x="244" y="403" type="curve"/>
      <point x="244" y="488" type="line" smooth="yes"/>
      <point x="244" y="489"/>
      <point x="245" y="492"/>
      <point x="248" y="492" type="curve"/>
      <point x="266" y="492" type="line" smooth="yes"/>
      <point x="272" y="492"/>
      <point x="274" y="490"/>
      <point x="276" y="487" type="curve"/>
      <point x="305" y="401" type="line" smooth="yes"/>
      <point x="307" y="396"/>
      <point x="310" y="394"/>
      <point x="314" y="394" type="curve"/>
      <point x="376" y="394" type="line" smooth="yes"/>
      <point x="381" y="394"/>
      <point x="384" y="399"/>
    </contour>
    <contour>
      <point x="284" y="539" type="curve"/>
      <point x="284" y="539" type="line"/>
      <point x="249" y="539" type="line" smooth="yes"/>
      <point x="245" y="539"/>
      <point x="244" y="541"/>
      <point x="244" y="546" type="curve"/>
      <point x="244" y="577" type="line" smooth="yes"/>
      <point x="244" y="582"/>
      <point x="246" y="583"/>
      <point x="251" y="583" type="curve"/>
      <point x="283" y="583" type="line" smooth="yes"/>
      <point x="297" y="583"/>
      <point x="310" y="575"/>
      <point x="310" y="561" type="curve"/>
      <point x="310" y="549"/>
      <point x="301" y="539"/>
    </contour>
  </outline>
</glyph>
<glyph name="ae" format="2">
  <advance width="905"/>
  <unicode hex="00E6"/>
  <anchor x="446" y="530" name="top"/>
  <outline>
    <contour>
      <point x="557" y="229" type="curve"/>
      <point x="557" y="229" type="line"/>
      <point x="868" y="229" type="line" smooth="yes"/>
      <point x="885" y="230"/>
      <point x="886" y="237"/>
      <point x="886" y="254" type="curve"/>
      <point x="886" y="435"/>
      <point x="771" y="540"/>
      <point x="614" y="540" type="curve"/>
      <point x="562" y="540"/>
      <point x="512" y="526"/>
      <point x="469" y="500" type="curve"/>
      <point x="431" y="525"/>
      <point x="372" y="539"/>
      <point x="283" y="540" type="curve"/>
      <point x="130" y="540"/>
      <point x="73" y="499"/>
      <point x="35" y="421" type="curve"/>
      <point x="30" y="410"/>
      <point x="33" y="391"/>
      <point x="42" y="389" type="curve"/>
      <point x="173" y="363" type="line" smooth="yes"/>
      <point x="191" y="360"/>
      <point x="195" y="361"/>
      <point x="200" y="374" type="curve"/>
      <point x="217" y="411"/>
      <point x="250" y="421"/>
      <point x="278" y="421" type="curve"/>
      <point x="318" y="421"/>
      <point x="337" y="400"/>
      <point x="337" y="363" type="curve"/>
      <point x="337" y="346" type="line" smooth="yes"/>
      <point x="337" y="334"/>
      <point x="327" y="332"/>
      <point x="319" y="332" type="curve"/>
      <point x="296" y="331" type="line" smooth="yes"/>
      <point x="104" y="322"/>
      <point x="8" y="250"/>
      <point x="8" y="143" type="curve"/>
      <point x="8" y="52"/>
      <point x="68" y="-10"/>
      <point x="181" y="-10" type="curve"/>
      <point x="273" y="-10"/>
      <point x="338" y="12"/>
      <point x="399" y="71" type="curve"/>
      <point x="403" y="75"/>
      <point x="406" y="75"/>
      <point x="410" y="71" type="curve"/>
      <point x="460" y="20"/>
      <point x="534" y="-10"/>
      <point x="618" y="-10" type="curve"/>
      <point x="730" y="-10"/>
      <point x="798" y="17"/>
      <point x="870" y="118" type="curve"/>
      <point x="879" y="129"/>
      <point x="876" y="138"/>
      <point x="866" y="142" type="curve"/>
      <point x="775" y="179" type="line" smooth="yes"/>
      <point x="762" y="184"/>
      <point x="759" y="183"/>
      <point x="754" y="178" type="curve"/>
      <point x="710" y="135"/>
      <point x="679" y="122"/>
      <point x="645" y="122" type="curve"/>
      <point x="587" y="122"/>
      <point x="542" y="151"/>
      <point x="542" y="212" type="curve"/>
      <point x="542" y="224"/>
      <point x="547" y="229"/>
    </contour>
    <contour>
      <point x="623" y="423" type="curve"/>
      <point x="623" y="423" type="line"/>
      <point x="673" y="423"/>
      <point x="692" y="372"/>
      <point x="692" y="346" type="curve"/>
      <point x="692" y="334"/>
      <point x="688" y="332"/>
      <point x="675" y="332" type="curve"/>
      <point x="545" y="333" type="line"/>
      <point x="544" y="395"/>
      <point x="582" y="423"/>
    </contour>
    <contour>
      <point x="337" y="216" type="curve"/>
      <point x="337" y="216" type="line"/>
      <point x="337" y="160" type="line" smooth="yes"/>
      <point x="337" y="127"/>
      <point x="300" y="108"/>
      <point x="262" y="108" type="curve"/>
      <point x="223" y="108"/>
      <point x="202" y="127"/>
      <point x="202" y="156" type="curve"/>
      <point x="202" y="205"/>
      <point x="267" y="230"/>
      <point x="305" y="233" type="curve"/>
      <point x="319" y="234" type="line" smooth="yes"/>
      <point x="331" y="234"/>
      <point x="337" y="228"/>
    </contour>
  </outline>
</glyph>
<glyph name="lslash" format="2">
  <advance width="364"/>
  <unicode hex="0142"/>
  <outline>
    <contour>
      <point x="344" y="378" type="curve"/>
      <point x="344" y="491" type="line"/>
      <point x="344" y="507"/>
      <point x="337" y="511"/>
      <point x="320" y="500" type="curve"/>
      <point x="39" y="324" type="line" smooth="yes"/>
      <point x="27" y="316"/>
      <point x="20" y="305"/>
      <point x="20" y="290" type="curve"/>
      <point x="20" y="170" type="line" smooth="yes"/>
      <point x="20" y="153"/>
      <point x="26" y="150"/>
      <point x="46" y="163" type="curve"/>
      <point x="324" y="345" type="line" smooth="yes"/>
      <point x="337" y="354"/>
      <point x="344" y="366"/>
    </contour>
    <component base="l" xOffset="40"/>
  </outline>
</glyph>
<glyph name="Eng" format="2">
  <advance width="761"/>
  <unicode hex="014A"/>
  <guideline x="527" y="578" angle="90"/>
  <outline>
    <contour>
      <point x="694" y="742" type="curve"/>
      <point x="694" y="742" type="line"/>
      <point x="549" y="742" type="line" smooth="yes"/>
      <point x="534" y="742"/>
      <point x="527" y="734"/>
      <point x="527" y="721" type="curve"/>
      <point x="527" y="434" type="line" smooth="yes"/>
      <point x="527" y="418"/>
      <point x="520" y="418"/>
      <point x="511" y="430" type="curve"/>
      <point x="271" y="724" type="line" smooth="yes"/>
      <point x="259" y="739"/>
      <point x="254" y="742"/>
      <point x="237" y="742" type="curve"/>
      <point x="74" y="742" type="line" smooth="yes"/>
      <point x="59" y="742"/>
      <point x="52" y="735"/>
      <point x="52" y="719" type="curve"/>
      <point x="52" y="20" type="line" smooth="yes"/>
      <point x="52" y="5"/>
      <point x="62" y="0"/>
      <point x="77" y="0" type="curve"/>
      <point x="213" y="0" type="line" smooth="yes"/>
      <point x="231" y="0"/>
      <point x="238" y="6"/>
      <point x="237" y="22" type="curve"/>
      <point x="237" y="386" type="line"/>
      <point x="237" y="393"/>
      <point x="241" y="395"/>
      <point x="247" y="388" type="curve"/>
      <point x="509" y="71" type="line"/>
      <point x="509" y="62" type="line" smooth="yes"/>
      <point x="505" y="7"/>
      <point x="486" y="-13"/>
      <point x="428" y="-13" type="curve"/>
      <point x="406" y="-13"/>
      <point x="363" y="-8"/>
      <point x="347" y="-6" type="curve"/>
      <point x="331" y="-4"/>
      <point x="324" y="-14"/>
      <point x="323" y="-29" type="curve"/>
      <point x="315" y="-120" type="line" smooth="yes"/>
      <point x="313" y="-148"/>
      <point x="323" y="-159"/>
      <point x="346" y="-163" type="curve"/>
      <point x="391" y="-171"/>
      <point x="435" y="-175"/>
      <point x="476" y="-175" type="curve"/>
      <point x="628" y="-175"/>
      <point x="709" y="-114"/>
      <point x="709" y="47" type="curve"/>
      <point x="709" y="725" type="line" smooth="yes"/>
      <point x="709" y="736"/>
      <point x="704" y="742"/>
    </contour>
  </outline>
</glyph>
<glyph name="eng" format="2">
	<advance width="610"/>
	<unicode hex="014B"/>
	<outline>
		<contour>
			<point x="412" y="540" type="curve"/>
			<point x="412" y="540" type="line"/>
			<point x="350" y="540"/>
			<point x="295" y="507"/>
			<point x="253" y="461" type="curve"/>
			<point x="245" y="453"/>
			<point x="240" y="457"/>
			<point x="240" y="465" type="curve"/>
			<point x="240" y="510" type="line" smooth="yes"/>
			<point x="240" y="522"/>
			<point x="234" y="530"/>
			<point x="222" y="530" type="curve"/>
			<point x="64" y="530" type="line" smooth="yes"/>
			<point x="52" y="530"/>
			<point x="45" y="521"/>
			<point x="45" y="507" type="curve"/>
			<point x="41" y="25" type="line" smooth="yes"/>
			<point x="41" y="7"/>
			<point x="48" y="0"/>
			<point x="67" y="0" type="curve"/>
			<point x="210" y="0" type="line" smooth="yes"/>
			<point x="234" y="0"/>
			<point x="243" y="8"/>
			<point x="243" y="29" type="curve"/>
			<point x="243" y="349" type="line"/>
			<point x="262" y="383"/>
			<point x="285" y="399"/>
			<point x="316" y="399" type="curve"/>
			<point x="348" y="399"/>
			<point x="369" y="381"/>
			<point x="369" y="351" type="curve"/>
			<point x="369" y="36" type="line" smooth="yes"/>
			<point x="369" y="2"/>
			<point x="358" y="-6"/>
			<point x="345" y="-10" type="curve"/>
			<point x="320" y="-16" type="line" smooth="yes"/>
			<point x="307" y="-19"/>
			<point x="300" y="-32"/>
			<point x="300" y="-43" type="curve"/>
			<point x="301" y="-145" type="line" smooth="yes"/>
			<point x="301" y="-166"/>
			<point x="313" y="-170"/>
			<point x="359" y="-170" type="curve"/>
			<point x="476" y="-170"/>
			<point x="569" y="-103"/>
			<point x="569" y="29" type="curve"/>
			<point x="569" y="378" type="line" smooth="yes"/>
			<point x="569" y="477"/>
			<point x="505" y="540"/>
		</contour>
	</outline>
</glyph>
<glyph name="OE" format="2">
  <advance width="1130"/>
  <unicode hex="0152"/>
  <outline>
    <contour>
      <point x="1075" y="164" type="curve"/>
      <point x="1075" y="164" type="line"/>
      <point x="750" y="164" type="line" smooth="yes"/>
      <point x="741" y="164"/>
      <point x="738" y="167"/>
      <point x="738" y="178" type="curve"/>
      <point x="738" y="278" type="line" smooth="yes"/>
      <point x="738" y="286"/>
      <point x="744" y="292"/>
      <point x="754" y="292" type="curve"/>
      <point x="939" y="292" type="line" smooth="yes"/>
      <point x="952" y="292"/>
      <point x="957" y="300"/>
      <point x="957" y="309" type="curve"/>
      <point x="957" y="433" type="line" smooth="yes"/>
      <point x="957" y="446"/>
      <point x="950" y="453"/>
      <point x="936" y="453" type="curve"/>
      <point x="756" y="453" type="line" smooth="yes"/>
      <point x="746" y="453"/>
      <point x="738" y="460"/>
      <point x="738" y="474" type="curve"/>
      <point x="738" y="559" type="line" smooth="yes"/>
      <point x="738" y="572"/>
      <point x="746" y="578"/>
      <point x="761" y="578" type="curve"/>
      <point x="1061" y="578" type="line" smooth="yes"/>
      <point x="1079" y="578"/>
      <point x="1087" y="589"/>
      <point x="1087" y="605" type="curve"/>
      <point x="1088" y="721" type="line" smooth="yes"/>
      <point x="1088" y="734"/>
      <point x="1082" y="742"/>
      <point x="1070" y="742" type="curve"/>
      <point x="522" y="742" type="line"/>
      <point x="515" y="742"/>
      <point x="512" y="740"/>
      <point x="512" y="735" type="curve"/>
      <point x="512" y="720" type="line"/>
      <point x="483" y="742"/>
      <point x="431" y="752"/>
      <point x="378" y="752" type="curve"/>
      <point x="172" y="752"/>
      <point x="31" y="601"/>
      <point x="31" y="368" type="curve"/>
      <point x="31" y="137"/>
      <point x="169" y="-10"/>
      <point x="363" y="-10" type="curve"/>
      <point x="425" y="-10"/>
      <point x="482" y="5"/>
      <point x="512" y="26" type="curve"/>
      <point x="512" y="8" type="line" smooth="yes"/>
      <point x="512" y="2"/>
      <point x="515" y="0"/>
      <point x="522" y="0" type="curve"/>
      <point x="1073" y="0" type="line" smooth="yes"/>
      <point x="1090" y="0"/>
      <point x="1097" y="10"/>
      <point x="1097" y="22" type="curve"/>
      <point x="1097" y="145" type="line" smooth="yes"/>
      <point x="1097" y="159"/>
      <point x="1089" y="164"/>
    </contour>
    <contour>
      <point x="390" y="146" type="curve"/>
      <point x="390" y="146" type="line"/>
      <point x="302" y="146"/>
      <point x="269" y="206"/>
      <point x="269" y="366" type="curve"/>
      <point x="269" y="530"/>
      <point x="304" y="598"/>
      <point x="391" y="598" type="curve"/>
      <point x="474" y="598"/>
      <point x="511" y="544"/>
      <point x="511" y="390" type="curve"/>
      <point x="511" y="346" type="line" smooth="yes"/>
      <point x="511" y="205"/>
      <point x="478" y="146"/>
    </contour>
  </outline>
</glyph>
<glyph name="oe" format="2">
  <advance width="940"/>
  <unicode hex="0153"/>
  <outline>
    <contour>
      <point x="299" y="-10" type="curve"/>
      <point x="299" y="-10" type="line"/>
      <point x="364" y="-10"/>
      <point x="421" y="8"/>
      <point x="467" y="39" type="curve"/>
      <point x="473" y="43"/>
      <point x="478" y="44"/>
      <point x="484" y="40" type="curve"/>
      <point x="530" y="8"/>
      <point x="588" y="-10"/>
      <point x="653" y="-10" type="curve"/>
      <point x="765" y="-10"/>
      <point x="833" y="17"/>
      <point x="905" y="118" type="curve"/>
      <point x="914" y="129"/>
      <point x="911" y="138"/>
      <point x="901" y="142" type="curve"/>
      <point x="810" y="179" type="line" smooth="yes"/>
      <point x="797" y="184"/>
      <point x="794" y="183"/>
      <point x="789" y="178" type="curve"/>
      <point x="745" y="135"/>
      <point x="714" y="122"/>
      <point x="680" y="122" type="curve"/>
      <point x="622" y="122"/>
      <point x="577" y="151"/>
      <point x="577" y="212" type="curve"/>
      <point x="577" y="224"/>
      <point x="582" y="229"/>
      <point x="592" y="229" type="curve"/>
      <point x="903" y="229" type="line"/>
      <point x="920" y="230"/>
      <point x="921" y="237"/>
      <point x="921" y="254" type="curve"/>
      <point x="921" y="435"/>
      <point x="806" y="540"/>
      <point x="649" y="540" type="curve"/>
      <point x="591" y="540"/>
      <point x="537" y="523"/>
      <point x="492" y="491" type="curve"/>
      <point x="482" y="484"/>
      <point x="477" y="484"/>
      <point x="467" y="491" type="curve"/>
      <point x="422" y="522"/>
      <point x="365" y="540"/>
      <point x="300" y="540" type="curve"/>
      <point x="142" y="540"/>
      <point x="21" y="429"/>
      <point x="21" y="262" type="curve"/>
      <point x="21" y="103"/>
      <point x="135" y="-10"/>
    </contour>
    <contour>
      <point x="300" y="118" type="curve"/>
      <point x="300" y="118" type="line"/>
      <point x="247" y="118"/>
      <point x="223" y="162"/>
      <point x="223" y="266" type="curve"/>
      <point x="223" y="371"/>
      <point x="247" y="416"/>
      <point x="300" y="416" type="curve"/>
      <point x="354" y="416"/>
      <point x="377" y="371"/>
      <point x="377" y="266" type="curve"/>
      <point x="377" y="163"/>
      <point x="354" y="118"/>
    </contour>
    <contour>
      <point x="658" y="423" type="curve"/>
      <point x="658" y="423" type="line"/>
      <point x="708" y="423"/>
      <point x="727" y="372"/>
      <point x="727" y="346" type="curve"/>
      <point x="727" y="334"/>
      <point x="723" y="332"/>
      <point x="710" y="332" type="curve"/>
      <point x="580" y="333" type="line"/>
      <point x="579" y="395"/>
      <point x="617" y="423"/>
    </contour>
  </outline>
</glyph>
<glyph name="jdotless" format="2">
  <advance width="283"/>
  <unicode hex="0237"/>
  <anchor x="142" y="530" name="top"/>
  <outline>
    <contour>
      <point x="242" y="29" type="curve"/>
      <point x="242" y="29" type="line"/>
      <point x="242" y="510" type="line" smooth="yes"/>
      <point x="242" y="522"/>
      <point x="236" y="530"/>
      <point x="224" y="530" type="curve"/>
      <point x="62" y="530" type="line" smooth="yes"/>
      <point x="50" y="530"/>
      <point x="42" y="522"/>
      <point x="42" y="507" type="curve"/>
      <point x="42" y="36" type="line" smooth="yes"/>
      <point x="42" y="2"/>
      <point x="31" y="-6"/>
      <point x="18" y="-10" type="curve"/>
      <point x="-17" y="-16" type="line" smooth="yes"/>
      <point x="-30" y="-19"/>
      <point x="-37" y="-32"/>
      <point x="-37" y="-43" type="curve"/>
      <point x="-36" y="-145" type="line" smooth="yes"/>
      <point x="-36" y="-166"/>
      <point x="-24" y="-170"/>
      <point x="32" y="-170" type="curve"/>
      <point x="174" y="-170"/>
      <point x="242" y="-103"/>
    </contour>
  </outline>
</glyph>
<glyph name="schwa" format="2">
  <advance width="590"/>
  <unicode hex="0259"/>
  <outline>
    <contour>
      <point x="363" y="318" type="curve"/>
      <point x="363" y="318" type="line"/>
      <point x="363" y="306"/>
      <point x="358" y="301"/>
      <point x="348" y="301" type="curve" smooth="yes"/>
      <point x="37" y="301" type="line"/>
      <point x="20" y="300"/>
      <point x="19" y="293"/>
      <point x="19" y="276" type="curve" smooth="yes"/>
      <point x="19" y="95"/>
      <point x="134" y="-10"/>
      <point x="291" y="-10" type="curve" smooth="yes"/>
      <point x="439" y="-10"/>
      <point x="569" y="104"/>
      <point x="569" y="274" type="curve" smooth="yes"/>
      <point x="569" y="431"/>
      <point x="447" y="540"/>
      <point x="287" y="540" type="curve" smooth="yes"/>
      <point x="175" y="540"/>
      <point x="107" y="513"/>
      <point x="35" y="412" type="curve"/>
      <point x="26" y="401"/>
      <point x="29" y="392"/>
      <point x="39" y="388" type="curve" smooth="yes"/>
      <point x="130" y="351" type="line" smooth="yes"/>
      <point x="143" y="346"/>
      <point x="146" y="347"/>
      <point x="151" y="352" type="curve" smooth="yes"/>
      <point x="195" y="395"/>
      <point x="226" y="408"/>
      <point x="260" y="408" type="curve" smooth="yes"/>
      <point x="318" y="408"/>
      <point x="363" y="379"/>
    </contour>
    <contour>
      <point x="230" y="198" type="curve" smooth="yes"/>
      <point x="360" y="197" type="line"/>
      <point x="361" y="135"/>
      <point x="323" y="107"/>
      <point x="282" y="107" type="curve" smooth="yes"/>
      <point x="232" y="107"/>
      <point x="213" y="158"/>
      <point x="213" y="184" type="curve" smooth="yes"/>
      <point x="213" y="196"/>
      <point x="217" y="198"/>
    </contour>
  </outline>
</glyph>
<glyph name="hungarumlautcomb" format="2">
  <unicode hex="030B"/>
  <anchor x="-233" y="530" name="_top"/>
  <outline>
    <contour>
      <point x="-238" y="683" type="curve"/>
      <point x="-288" y="743" type="line"/>
      <point x="-295" y="752"/>
      <point x="-304" y="752"/>
      <point x="-312" y="745" type="curve"/>
      <point x="-453" y="626" type="line" smooth="yes"/>
      <point x="-460" y="620"/>
      <point x="-459" y="610"/>
      <point x="-450" y="601" type="curve"/>
      <point x="-417" y="566" type="line" smooth="yes"/>
      <point x="-407" y="555"/>
      <point x="-401" y="557"/>
      <point x="-385" y="566" type="curve"/>
      <point x="-242" y="646" type="line" smooth="yes"/>
      <point x="-224" y="656"/>
      <point x="-227" y="670"/>
    </contour>
    <contour>
      <point x="-19" y="683" type="curve"/>
      <point x="-69" y="743" type="line"/>
      <point x="-76" y="752"/>
      <point x="-85" y="752"/>
      <point x="-93" y="745" type="curve"/>
      <point x="-234" y="626" type="line" smooth="yes"/>
      <point x="-241" y="620"/>
      <point x="-240" y="610"/>
      <point x="-231" y="601" type="curve"/>
      <point x="-198" y="566" type="line" smooth="yes"/>
      <point x="-188" y="555"/>
      <point x="-182" y="557"/>
      <point x="-166" y="566" type="curve"/>
      <point x="-23" y="646" type="line" smooth="yes"/>
      <point x="-5" y="656"/>
      <point x="-8" y="670"/>
    </contour>
  </outline>
</glyph>
<glyph name="caroncomb" format="2">
	<advance width="0"/>
	<unicode hex="030C"/>
	<anchor x="-210" y="530" name="_top"/>
	<outline>
		<contour>
			<point x="-154" y="734" type="curve"/>
			<point x="-154" y="734" type="line"/>
			<point x="-195" y="679" type="line" smooth="yes"/>
			<point x="-209" y="661"/>
			<point x="-213" y="659"/>
			<point x="-229" y="679" type="curve"/>
			<point x="-275" y="734" type="line" smooth="yes"/>
			<point x="-283" y="744"/>
			<point x="-288" y="743"/>
			<point x="-301" y="743" type="curve"/>
			<point x="-400" y="743" type="line" smooth="yes"/>
			<point x="-412" y="743"/>
			<point x="-412" y="736"/>
			<point x="-403" y="725" type="curve"/>
			<point x="-291" y="600" type="line" smooth="yes"/>
			<point x="-282" y="590"/>
			<point x="-273" y="585"/>
			<point x="-254" y="585" type="curve"/>
			<point x="-159" y="585" type="line" smooth="yes"/>
			<point x="-145" y="585"/>
			<point x="-138" y="591"/>
			<point x="-131" y="598" type="curve"/>
			<point x="-20" y="725" type="line" smooth="yes"/>
			<point x="-9" y="737"/>
			<point x="-8" y="743"/>
			<point x="-22" y="743" type="curve"/>
			<point x="-127" y="743" type="line" smooth="yes"/>
			<point x="-139" y="743"/>
			<point x="-147" y="743"/>
		</contour>
	</outline>
</glyph>
<glyph name="emdash" format="2">
  <advance width="928"/>
  <unicode hex="2014"/>
  <outline>
    <contour>
      <point x="888" y="211" type="curve"/>
      <point x="888" y="303" type="line"/>
      <point x="888" y="315"/>
      <point x="881" y="323"/>
      <point x="870" y="323" type="curve"/>
      <point x="59" y="323" type="line" smooth="yes"/>
      <point x="47" y="323"/>
      <point x="40" y="315"/>
      <point x="40" y="300" type="curve"/>
      <point x="40" y="208" type="line" smooth="yes"/>
      <point x="40" y="191"/>
      <point x="46" y="183"/>
      <point x="66" y="183" type="curve"/>
      <point x="855" y="183" type="line" smooth="yes"/>
      <point x="878" y="183"/>
      <point x="888" y="191"/>
    </contour>
  </outline>
</glyph>
<glyph name="quoteleft" format="2">
  <advance width="253"/>
  <unicode hex="2018"/>
  <outline>
    <contour>
      <point x="193" y="742" type="curve"/>
      <point x="193" y="742" type="line"/>
      <point x="177" y="742" type="line" smooth="yes"/>
      <point x="163" y="742"/>
      <point x="145" y="735"/>
      <point x="136" y="721" type="curve" smooth="yes"/>
      <point x="36" y="570" type="line" smooth="yes"/>
      <point x="34" y="567"/>
      <point x="32" y="562"/>
      <point x="32" y="556" type="curve" smooth="yes"/>
      <point x="32" y="429" type="line" smooth="yes"/>
      <point x="32" y="418"/>
      <point x="38" y="411"/>
      <point x="49" y="411" type="curve" smooth="yes"/>
      <point x="196" y="411" type="line" smooth="yes"/>
      <point x="207" y="411"/>
      <point x="214" y="418"/>
      <point x="214" y="432" type="curve" smooth="yes"/>
      <point x="214" y="564" type="line" smooth="yes"/>
      <point x="214" y="580"/>
      <point x="208" y="585"/>
      <point x="190" y="587" type="curve" smooth="yes"/>
      <point x="174" y="589" type="line"/>
      <point x="159" y="592"/>
      <point x="158" y="600"/>
      <point x="165" y="618" type="curve" smooth="yes"/>
      <point x="207" y="720" type="line" smooth="yes"/>
      <point x="211" y="730"/>
      <point x="205" y="742"/>
    </contour>
  </outline>
</glyph>
<glyph name="lira" format="2">
  <advance width="664"/>
  <unicode hex="20A4"/>
  <outline>
    <contour>
      <point x="624" y="216" type="curve"/>
      <point x="624" y="216" type="line"/>
      <point x="501" y="240" type="line" smooth="yes"/>
      <point x="487" y="243"/>
      <point x="480" y="240"/>
      <point x="476" y="229" type="curve"/>
      <point x="460" y="183"/>
      <point x="433" y="164"/>
      <point x="380" y="164" type="curve"/>
      <point x="300" y="164" type="line" smooth="yes"/>
      <point x="289" y="164"/>
      <point x="284" y="171"/>
      <point x="295" y="179" type="curve"/>
      <point x="315" y="193"/>
      <point x="328" y="211"/>
      <point x="336" y="233" type="curve"/>
      <point x="340" y="243"/>
      <point x="343" y="245"/>
      <point x="352" y="245" type="curve"/>
      <point x="422" y="245" type="line" smooth="yes"/>
      <point x="445" y="245"/>
      <point x="455" y="253"/>
      <point x="455" y="273" type="curve"/>
      <point x="455" y="326" type="line" smooth="yes"/>
      <point x="455" y="338"/>
      <point x="448" y="346"/>
      <point x="437" y="346" type="curve"/>
      <point x="361" y="346" type="line" smooth="yes"/>
      <point x="351" y="346"/>
      <point x="347" y="348"/>
      <point x="346" y="358" type="curve"/>
      <point x="344" y="384" type="line" smooth="yes"/>
      <point x="343" y="392"/>
      <point x="347" y="395"/>
      <point x="355" y="395" type="curve"/>
      <point x="422" y="395" type="line" smooth="yes"/>
      <point x="445" y="395"/>
      <point x="455" y="403"/>
      <point x="455" y="423" type="curve"/>
      <point x="455" y="476" type="line" smooth="yes"/>
      <point x="455" y="488"/>
      <point x="448" y="496"/>
      <point x="437" y="496" type="curve"/>
      <point x="338" y="496" type="line" smooth="yes"/>
      <point x="330" y="496"/>
      <point x="326" y="501"/>
      <point x="325" y="509" type="curve"/>
      <point x="324" y="519"/>
      <point x="323" y="528"/>
      <point x="323" y="536" type="curve"/>
      <point x="323" y="575"/>
      <point x="342" y="598"/>
      <point x="372" y="598" type="curve"/>
      <point x="404" y="598"/>
      <point x="419" y="572"/>
      <point x="430" y="544" type="curve"/>
      <point x="434" y="536"/>
      <point x="443" y="534"/>
      <point x="453" y="537" type="curve"/>
      <point x="590" y="577" type="line" smooth="yes"/>
      <point x="600" y="580"/>
      <point x="606" y="585"/>
      <point x="602" y="595" type="curve"/>
      <point x="553" y="708"/>
      <point x="438" y="752"/>
      <point x="341" y="752" type="curve"/>
      <point x="205" y="752"/>
      <point x="80" y="683"/>
      <point x="90" y="546" type="curve"/>
      <point x="93" y="510" type="line" smooth="yes"/>
      <point x="94" y="500"/>
      <point x="91" y="496"/>
      <point x="80" y="496" type="curve"/>
      <point x="32" y="496" type="line" smooth="yes"/>
      <point x="20" y="496"/>
      <point x="13" y="488"/>
      <point x="13" y="473" type="curve"/>
      <point x="13" y="420" type="line" smooth="yes"/>
      <point x="13" y="403"/>
      <point x="19" y="395"/>
      <point x="39" y="395" type="curve"/>
      <point x="97" y="395" type="line" smooth="yes"/>
      <point x="104" y="395"/>
      <point x="108" y="392"/>
      <point x="109" y="385" type="curve"/>
      <point x="113" y="357" type="line" smooth="yes"/>
      <point x="114" y="349"/>
      <point x="111" y="346"/>
      <point x="103" y="346" type="curve"/>
      <point x="32" y="346" type="line" smooth="yes"/>
      <point x="20" y="346"/>
      <point x="13" y="338"/>
      <point x="13" y="323" type="curve"/>
      <point x="13" y="270" type="line" smooth="yes"/>
      <point x="13" y="253"/>
      <point x="19" y="245"/>
      <point x="39" y="245" type="curve"/>
      <point x="118" y="245" type="line" smooth="yes"/>
      <point x="124" y="245"/>
      <point x="127" y="243"/>
      <point x="127" y="237" type="curve"/>
      <point x="127" y="226"/>
      <point x="126" y="216"/>
      <point x="123" y="208" type="curve"/>
      <point x="113" y="176"/>
      <point x="84" y="163"/>
      <point x="44" y="163" type="curve"/>
      <point x="27" y="163" type="line" smooth="yes"/>
      <point x="16" y="163"/>
      <point x="12" y="158"/>
      <point x="12" y="148" type="curve"/>
      <point x="12" y="20" type="line" smooth="yes"/>
      <point x="12" y="8"/>
      <point x="18" y="0"/>
      <point x="30" y="0" type="curve"/>
      <point x="396" y="0" type="line" smooth="yes"/>
      <point x="521" y="0"/>
      <point x="614" y="68"/>
      <point x="643" y="191" type="curve"/>
      <point x="646" y="204"/>
      <point x="639" y="213"/>
    </contour>
  </outline>
</glyph>
<glyph name="naira" format="2">
	<advance width="810"/>
	<unicode hex="20A6"/>
	<outline>
		<contour>
			<point x="810" y="483" type="curve"/>
			<point x="810" y="526" type="line"/>
			<point x="810" y="538"/>
			<point x="803" y="546"/>
			<point x="792" y="546" type="curve"/>
			<point x="19" y="546" type="line" smooth="yes"/>
			<point x="7" y="546"/>
			<point x="0" y="538"/>
			<point x="0" y="523" type="curve"/>
			<point x="0" y="480" type="line" smooth="yes"/>
			<point x="0" y="463"/>
			<point x="6" y="455"/>
			<point x="26" y="455" type="curve"/>
			<point x="777" y="455" type="line" smooth="yes"/>
			<point x="800" y="455"/>
			<point x="810" y="463"/>
		</contour>
		<contour>
			<point x="810" y="243" type="curve"/>
			<point x="810" y="286" type="line"/>
			<point x="810" y="298"/>
			<point x="803" y="306"/>
			<point x="792" y="306" type="curve"/>
			<point x="19" y="306" type="line" smooth="yes"/>
			<point x="7" y="306"/>
			<point x="0" y="298"/>
			<point x="0" y="283" type="curve"/>
			<point x="0" y="240" type="line" smooth="yes"/>
			<point x="0" y="223"/>
			<point x="6" y="215"/>
			<point x="26" y="215" type="curve"/>
			<point x="777" y="215" type="line" smooth="yes"/>
			<point x="800" y="215"/>
			<point x="810" y="223"/>
		</contour>
		<component base="N" xOffset="29"/>
	</outline>
</glyph>
<glyph name="trademark" format="2">
  <advance width="1058"/>
  <unicode hex="2122"/>
  <outline>
    <contour>
      <point x="18" y="727" type="curve" smooth="yes"/>
      <point x="18" y="653" type="line" smooth="yes"/>
      <point x="18" y="644"/>
      <point x="23" y="641"/>
      <point x="32" y="641" type="curve" smooth="yes"/>
      <point x="142" y="641" type="line" smooth="yes"/>
      <point x="147" y="641"/>
      <point x="149" y="639"/>
      <point x="149" y="632" type="curve" smooth="yes"/>
      <point x="149" y="291" type="line" smooth="yes"/>
      <point x="149" y="282"/>
      <point x="153" y="278"/>
      <point x="160" y="278" type="curve" smooth="yes"/>
      <point x="279" y="278" type="line" smooth="yes"/>
      <point x="286" y="278"/>
      <point x="291" y="282"/>
      <point x="291" y="292" type="curve" smooth="yes"/>
      <point x="291" y="635" type="line" smooth="yes"/>
      <point x="291" y="639"/>
      <point x="293" y="641"/>
      <point x="298" y="641" type="curve" smooth="yes"/>
      <point x="409" y="641" type="line" smooth="yes"/>
      <point x="417" y="641"/>
      <point x="423" y="644"/>
      <point x="423" y="653" type="curve" smooth="yes"/>
      <point x="423" y="727" type="line" smooth="yes"/>
      <point x="423" y="736"/>
      <point x="418" y="742"/>
      <point x="407" y="742" type="curve" smooth="yes"/>
      <point x="33" y="742" type="line" smooth="yes"/>
      <point x="23" y="742"/>
      <point x="18" y="736"/>
    </contour>
    <contour>
      <point x="493" y="278" type="curve"/>
      <point x="493" y="278" type="line"/>
      <point x="576" y="278" type="line" smooth="yes"/>
      <point x="587" y="278"/>
      <point x="590" y="281"/>
      <point x="590" y="292" type="curve" smooth="yes"/>
      <point x="590" y="568" type="line" smooth="yes"/>
      <point x="590" y="576"/>
      <point x="594" y="579"/>
      <point x="597" y="569" type="curve" smooth="yes"/>
      <point x="687" y="289" type="line"/>
      <point x="690" y="282"/>
      <point x="695" y="278"/>
      <point x="702" y="278" type="curve" smooth="yes"/>
      <point x="768" y="278" type="line" smooth="yes"/>
      <point x="775" y="278"/>
      <point x="780" y="282"/>
      <point x="783" y="289" type="curve"/>
      <point x="873" y="574" type="line" smooth="yes"/>
      <point x="875" y="581"/>
      <point x="880" y="581"/>
      <point x="880" y="574" type="curve" smooth="yes"/>
      <point x="880" y="294" type="line" smooth="yes"/>
      <point x="880" y="283"/>
      <point x="884" y="278"/>
      <point x="897" y="278" type="curve" smooth="yes"/>
      <point x="1002" y="278" type="line" smooth="yes"/>
      <point x="1017" y="278"/>
      <point x="1022" y="283"/>
      <point x="1022" y="296" type="curve" smooth="yes"/>
      <point x="1022" y="729" type="line" smooth="yes"/>
      <point x="1022" y="737"/>
      <point x="1018" y="742"/>
      <point x="1011" y="742" type="curve" smooth="yes"/>
      <point x="830" y="742" type="line" smooth="yes"/>
      <point x="822" y="742"/>
      <point x="817" y="735"/>
      <point x="813" y="724" type="curve"/>
      <point x="755" y="532" type="line" smooth="yes"/>
      <point x="753" y="526"/>
      <point x="750" y="525"/>
      <point x="747" y="532" type="curve"/>
      <point x="682" y="731" type="line" smooth="yes"/>
      <point x="679" y="739"/>
      <point x="675" y="742"/>
      <point x="665" y="742" type="curve" smooth="yes"/>
      <point x="490" y="742" type="line" smooth="yes"/>
      <point x="480" y="742"/>
      <point x="477" y="737"/>
      <point x="477" y="727" type="curve" smooth="yes"/>
      <point x="477" y="296" type="line" smooth="yes"/>
      <point x="477" y="285"/>
      <point x="483" y="278"/>
    </contour>
  </outline>
</glyph>
<glyph name="partialdiff" format="2">
	<advance width="600"/>
	<unicode hex="2202"/>
	<outline>
		<contour>
			<point x="110" y="578" type="curve"/>
			<point x="110" y="578" type="line"/>
			<point x="134" y="592"/>
			<point x="169" y="610"/>
			<point x="225" y="610" type="curve"/>
			<point x="360" y="610"/>
			<point x="405" y="503"/>
			<point x="405" y="450" type="curve"/>
			<point x="405" y="439"/>
			<point x="403" y="429"/>
			<point x="387" y="442" type="curve"/>
			<point x="359" y="465"/>
			<point x="327" y="488"/>
			<point x="260" y="488" type="curve"/>
			<point x="112" y="488"/>
			<point x="23" y="376"/>
			<point x="23" y="238" type="curve"/>
			<point x="23" y="97"/>
			<point x="116" y="-10"/>
			<point x="285" y="-10" type="curve"/>
			<point x="486" y="-10"/>
			<point x="581" y="142"/>
			<point x="581" y="363" type="curve"/>
			<point x="581" y="629"/>
			<point x="443" y="752"/>
			<point x="257" y="752" type="curve"/>
			<point x="152" y="752"/>
			<point x="80" y="713"/>
			<point x="54" y="694" type="curve"/>
			<point x="48" y="690"/>
			<point x="38" y="682"/>
			<point x="47" y="662" type="curve"/>
			<point x="83" y="583" type="line" smooth="yes"/>
			<point x="89" y="571"/>
			<point x="96" y="570"/>
		</contour>
		<contour>
			<point x="283" y="126" type="curve"/>
			<point x="282" y="126" type="line"/>
			<point x="240" y="126"/>
			<point x="208" y="159"/>
			<point x="208" y="230" type="curve"/>
			<point x="208" y="304"/>
			<point x="244" y="361"/>
			<point x="299" y="361" type="curve"/>
			<point x="338" y="361"/>
			<point x="366" y="333"/>
			<point x="381" y="307" type="curve"/>
			<point x="388" y="295"/>
			<point x="389" y="290"/>
			<point x="387" y="271" type="curve"/>
			<point x="378" y="186"/>
			<point x="344" y="126"/>
		</contour>
	</outline>
</glyph>
<glyph name="summation" format="2">
  <advance width="600"/>
  <unicode hex="2211"/>
  <outline>
    <contour>
      <point x="34" y="0" type="curve"/>
      <point x="567" y="0" type="line"/>
      <point x="575" y="0"/>
      <point x="578" y="3"/>
      <point x="578" y="12" type="curve"/>
      <point x="578" y="158" type="line" smooth="yes"/>
      <point x="578" y="164"/>
      <point x="575" y="166"/>
      <point x="568" y="166" type="curve"/>
      <point x="289" y="166" type="line" smooth="yes"/>
      <point x="285" y="166"/>
      <point x="284" y="169"/>
      <point x="288" y="174" type="curve"/>
      <point x="473" y="386" type="line" smooth="yes"/>
      <point x="475" y="389"/>
      <point x="475" y="391"/>
      <point x="472" y="395" type="curve"/>
      <point x="309" y="578" type="line" smooth="yes"/>
      <point x="306" y="582"/>
      <point x="307" y="585"/>
      <point x="311" y="585" type="curve"/>
      <point x="554" y="585" type="line" smooth="yes"/>
      <point x="557" y="585"/>
      <point x="559" y="586"/>
      <point x="559" y="591" type="curve"/>
      <point x="559" y="736" type="line" smooth="yes"/>
      <point x="559" y="740"/>
      <point x="557" y="742"/>
      <point x="552" y="742" type="curve"/>
      <point x="43" y="742" type="line" smooth="yes"/>
      <point x="35" y="742"/>
      <point x="32" y="739"/>
      <point x="32" y="732" type="curve"/>
      <point x="32" y="622" type="line" smooth="yes"/>
      <point x="32" y="613"/>
      <point x="34" y="608"/>
      <point x="38" y="603" type="curve"/>
      <point x="216" y="383" type="line" smooth="yes"/>
      <point x="226" y="371"/>
      <point x="226" y="362"/>
      <point x="219" y="354" type="curve"/>
      <point x="30" y="127" type="line" smooth="yes"/>
      <point x="25" y="120"/>
      <point x="22" y="114"/>
      <point x="22" y="106" type="curve"/>
      <point x="22" y="13" type="line" smooth="yes"/>
      <point x="22" y="5"/>
      <point x="26" y="0"/>
    </contour>
  </outline>
</glyph>
<glyph name="lozenge" format="2">
  <advance width="600"/>
  <unicode hex="25CA"/>
  <outline>
    <contour>
      <point x="270" y="0" type="curve"/>
      <point x="354" y="0" type="line"/>
      <point x="374" y="0"/>
      <point x="381" y="10"/>
      <point x="387" y="21" type="curve"/>
      <point x="560" y="343" type="line" smooth="yes"/>
      <point x="572" y="365"/>
      <point x="570" y="380"/>
      <point x="559" y="402" type="curve"/>
      <point x="391" y="723" type="line" smooth="yes"/>
      <point x="384" y="737"/>
      <point x="373" y="742"/>
      <point x="360" y="742" type="curve"/>
      <point x="279" y="742" type="line" smooth="yes"/>
      <point x="260" y="742"/>
      <point x="253" y="733"/>
      <point x="247" y="722" type="curve"/>
      <point x="72" y="393" type="line" smooth="yes"/>
      <point x="63" y="376"/>
      <point x="64" y="364"/>
      <point x="73" y="347" type="curve"/>
      <point x="243" y="19" type="line" smooth="yes"/>
      <point x="249" y="7"/>
      <point x="258" y="0"/>
    </contour>
    <contour>
      <point x="336" y="564" type="curve"/>
      <point x="336" y="564" type="line"/>
      <point x="415" y="397" type="line" smooth="yes"/>
      <point x="425" y="375"/>
      <point x="428" y="366"/>
      <point x="418" y="345" type="curve"/>
      <point x="335" y="171" type="line" smooth="yes"/>
      <point x="324" y="150"/>
      <point x="312" y="147"/>
      <point x="300" y="173" type="curve"/>
      <point x="216" y="351" type="line" smooth="yes"/>
      <point x="208" y="368"/>
      <point x="210" y="381"/>
      <point x="218" y="399" type="curve"/>
      <point x="299" y="564" type="line" smooth="yes"/>
      <point x="312" y="590"/>
      <point x="323" y="592"/>
    </contour>
  </outline>
</glyph>
<glyph name="eight.dnom" format="2">
  <advance width="401"/>
  <outline>
    <contour>
      <point x="198" y="469" type="curve"/>
      <point x="198" y="469" type="line"/>
      <point x="82" y="469"/>
      <point x="15" y="400"/>
      <point x="15" y="320" type="curve" smooth="yes"/>
      <point x="15" y="266"/>
      <point x="47" y="242"/>
      <point x="77" y="219" type="curve" smooth="yes"/>
      <point x="83" y="214"/>
      <point x="81" y="212"/>
      <point x="76" y="209" type="curve"/>
      <point x="19" y="180"/>
      <point x="3" y="150"/>
      <point x="3" y="110" type="curve" smooth="yes"/>
      <point x="3" y="32"/>
      <point x="82" y="-10"/>
      <point x="194" y="-10" type="curve" smooth="yes"/>
      <point x="318" y="-10"/>
      <point x="404" y="41"/>
      <point x="404" y="134" type="curve" smooth="yes"/>
      <point x="404" y="177"/>
      <point x="388" y="208"/>
      <point x="324" y="246" type="curve"/>
      <point x="316" y="252"/>
      <point x="318" y="256"/>
      <point x="325" y="259" type="curve" smooth="yes"/>
      <point x="362" y="277"/>
      <point x="383" y="305"/>
      <point x="383" y="338" type="curve" smooth="yes"/>
      <point x="383" y="412"/>
      <point x="303" y="469"/>
    </contour>
    <contour>
      <point x="201" y="378" type="curve"/>
      <point x="201" y="378" type="line"/>
      <point x="243" y="378"/>
      <point x="265" y="356"/>
      <point x="265" y="333" type="curve" smooth="yes"/>
      <point x="265" y="311"/>
      <point x="242" y="280"/>
      <point x="218" y="288" type="curve" smooth="yes"/>
      <point x="178" y="302" type="line" smooth="yes"/>
      <point x="159" y="309"/>
      <point x="148" y="322"/>
      <point x="148" y="338" type="curve" smooth="yes"/>
      <point x="148" y="363"/>
      <point x="171" y="378"/>
    </contour>
    <contour>
      <point x="203" y="81" type="curve"/>
      <point x="203" y="81" type="line"/>
      <point x="144" y="81"/>
      <point x="122" y="101"/>
      <point x="122" y="133" type="curve" smooth="yes"/>
      <point x="122" y="165"/>
      <point x="152" y="188"/>
      <point x="177" y="180" type="curve" smooth="yes"/>
      <point x="222" y="164" type="line" smooth="yes"/>
      <point x="255" y="152"/>
      <point x="262" y="138"/>
      <point x="262" y="121" type="curve" smooth="yes"/>
      <point x="262" y="97"/>
      <point x="242" y="81"/>
    </contour>
  </outline>
</glyph>
<glyph name="eight.numr" format="2">
  <advance width="401"/>
  <outline>
    <contour>
      <point x="198" y="752" type="curve"/>
      <point x="198" y="752" type="line"/>
      <point x="82" y="752"/>
      <point x="15" y="683"/>
      <point x="15" y="603" type="curve" smooth="yes"/>
      <point x="15" y="549"/>
      <point x="47" y="525"/>
      <point x="77" y="502" type="curve" smooth="yes"/>
      <point x="83" y="497"/>
      <point x="81" y="495"/>
      <point x="76" y="492" type="curve"/>
      <point x="19" y="463"/>
      <point x="3" y="433"/>
      <point x="3" y="393" type="curve" smooth="yes"/>
      <point x="3" y="315"/>
      <point x="82" y="273"/>
      <point x="194" y="273" type="curve" smooth="yes"/>
      <point x="318" y="273"/>
      <point x="404" y="324"/>
      <point x="404" y="417" type="curve" smooth="yes"/>
      <point x="404" y="460"/>
      <point x="388" y="491"/>
      <point x="324" y="529" type="curve"/>
      <point x="316" y="535"/>
      <point x="318" y="539"/>
      <point x="325" y="542" type="curve" smooth="yes"/>
      <point x="362" y="560"/>
      <point x="383" y="588"/>
      <point x="383" y="621" type="curve" smooth="yes"/>
      <point x="383" y="695"/>
      <point x="303" y="752"/>
    </contour>
    <contour>
      <point x="201" y="661" type="curve"/>
      <point x="201" y="661" type="line"/>
      <point x="243" y="661"/>
      <point x="265" y="639"/>
      <point x="265" y="616" type="curve" smooth="yes"/>
      <point x="265" y="594"/>
      <point x="242" y="563"/>
      <point x="218" y="571" type="curve" smooth="yes"/>
      <point x="178" y="585" type="line" smooth="yes"/>
      <point x="159" y="592"/>
      <point x="148" y="605"/>
      <point x="148" y="621" type="curve" smooth="yes"/>
      <point x="148" y="646"/>
      <point x="171" y="661"/>
    </contour>
    <contour>
      <point x="203" y="364" type="curve"/>
      <point x="203" y="364" type="line"/>
      <point x="144" y="364"/>
      <point x="122" y="384"/>
      <point x="122" y="416" type="curve" smooth="yes"/>
      <point x="122" y="448"/>
      <point x="152" y="471"/>
      <point x="177" y="463" type="curve" smooth="yes"/>
      <point x="222" y="447" type="line" smooth="yes"/>
      <point x="255" y="435"/>
      <point x="262" y="421"/>
      <point x="262" y="404" type="curve" smooth="yes"/>
      <point x="262" y="380"/>
      <point x="242" y="364"/>
    </contour>
  </outline>
</glyph>
<glyph name="five.dnom" format="2">
  <advance width="401"/>
  <outline>
    <contour>
      <point x="350" y="464" type="curve" smooth="yes"/>
      <point x="78" y="464" type="line" smooth="yes"/>
      <point x="56" y="464"/>
      <point x="51" y="459"/>
      <point x="50" y="445" type="curve" smooth="yes"/>
      <point x="32" y="250" type="line"/>
      <point x="30" y="239"/>
      <point x="30" y="232"/>
      <point x="40" y="227" type="curve" smooth="yes"/>
      <point x="115" y="186" type="line" smooth="yes"/>
      <point x="124" y="181"/>
      <point x="125" y="181"/>
      <point x="133" y="185" type="curve" smooth="yes"/>
      <point x="162" y="198"/>
      <point x="177" y="202"/>
      <point x="196" y="202" type="curve" smooth="yes"/>
      <point x="245" y="202"/>
      <point x="266" y="174"/>
      <point x="266" y="145" type="curve" smooth="yes"/>
      <point x="266" y="114"/>
      <point x="241" y="89"/>
      <point x="194" y="89" type="curve" smooth="yes"/>
      <point x="149" y="89"/>
      <point x="126" y="113"/>
      <point x="101" y="143" type="curve"/>
      <point x="95" y="149"/>
      <point x="88" y="151"/>
      <point x="80" y="145" type="curve"/>
      <point x="12" y="100" type="line" smooth="yes"/>
      <point x="0" y="92"/>
      <point x="4" y="83"/>
      <point x="11" y="73" type="curve" smooth="yes"/>
      <point x="43" y="25"/>
      <point x="118" y="-9"/>
      <point x="210" y="-9" type="curve" smooth="yes"/>
      <point x="328" y="-9"/>
      <point x="406" y="49"/>
      <point x="406" y="149" type="curve" smooth="yes"/>
      <point x="406" y="245"/>
      <point x="333" y="301"/>
      <point x="232" y="301" type="curve" smooth="yes"/>
      <point x="204" y="301"/>
      <point x="185" y="297"/>
      <point x="152" y="288" type="curve" smooth="yes"/>
      <point x="145" y="286"/>
      <point x="140" y="289"/>
      <point x="142" y="297" type="curve"/>
      <point x="147" y="339" type="line"/>
      <point x="147" y="347"/>
      <point x="152" y="350"/>
      <point x="160" y="350" type="curve" smooth="yes"/>
      <point x="348" y="350" type="line" smooth="yes"/>
      <point x="360" y="350"/>
      <point x="365" y="354"/>
      <point x="366" y="365" type="curve"/>
      <point x="369" y="445" type="line" smooth="yes"/>
      <point x="370" y="461"/>
      <point x="369" y="464"/>
    </contour>
  </outline>
</glyph>
<glyph name="four.dnom" format="2">
  <advance width="416"/>
  <outline>
    <contour>
      <point x="207" y="451" type="curve"/>
      <point x="207" y="451" type="line"/>
      <point x="26" y="217" type="line" smooth="yes"/>
      <point x="12" y="198"/>
      <point x="6" y="189"/>
      <point x="6" y="179" type="curve" smooth="yes"/>
      <point x="6" y="114" type="line" smooth="yes"/>
      <point x="6" y="106"/>
      <point x="11" y="100"/>
      <point x="21" y="100" type="curve" smooth="yes"/>
      <point x="201" y="100" type="line" smooth="yes"/>
      <point x="206" y="100"/>
      <point x="209" y="98"/>
      <point x="209" y="94" type="curve" smooth="yes"/>
      <point x="209" y="16" type="line" smooth="yes"/>
      <point x="209" y="5"/>
      <point x="213" y="0"/>
      <point x="226" y="0" type="curve" smooth="yes"/>
      <point x="333" y="0" type="line" smooth="yes"/>
      <point x="348" y="0"/>
      <point x="354" y="5"/>
      <point x="354" y="18" type="curve" smooth="yes"/>
      <point x="354" y="92" type="line" smooth="yes"/>
      <point x="354" y="98"/>
      <point x="357" y="100"/>
      <point x="362" y="100" type="curve" smooth="yes"/>
      <point x="406" y="100" type="line" smooth="yes"/>
      <point x="417" y="100"/>
      <point x="421" y="106"/>
      <point x="421" y="114" type="curve" smooth="yes"/>
      <point x="421" y="183" type="line" smooth="yes"/>
      <point x="421" y="192"/>
      <point x="416" y="195"/>
      <point x="408" y="195" type="curve" smooth="yes"/>
      <point x="361" y="195" type="line" smooth="yes"/>
      <point x="357" y="195"/>
      <point x="354" y="198"/>
      <point x="354" y="203" type="curve" smooth="yes"/>
      <point x="354" y="454" type="line" smooth="yes"/>
      <point x="354" y="462"/>
      <point x="350" y="467"/>
      <point x="342" y="467" type="curve" smooth="yes"/>
      <point x="239" y="467" type="line" smooth="yes"/>
      <point x="222" y="467"/>
      <point x="218" y="464"/>
    </contour>
    <contour>
      <point x="206" y="195" type="curve" smooth="yes"/>
      <point x="121" y="195" type="line" smooth="yes"/>
      <point x="113" y="195"/>
      <point x="113" y="198"/>
      <point x="116" y="203" type="curve"/>
      <point x="202" y="323" type="line" smooth="yes"/>
      <point x="209" y="333"/>
      <point x="211" y="333"/>
      <point x="211" y="321" type="curve" smooth="yes"/>
      <point x="211" y="199" type="line" smooth="yes"/>
      <point x="211" y="197"/>
      <point x="209" y="195"/>
    </contour>
  </outline>
</glyph>
<glyph name="four.numr" format="2">
  <advance width="416"/>
  <outline>
    <contour>
      <point x="207" y="727" type="curve"/>
      <point x="207" y="727" type="line"/>
      <point x="26" y="493" type="line" smooth="yes"/>
      <point x="12" y="474"/>
      <point x="6" y="465"/>
      <point x="6" y="455" type="curve" smooth="yes"/>
      <point x="6" y="390" type="line" smooth="yes"/>
      <point x="6" y="382"/>
      <point x="11" y="376"/>
      <point x="21" y="376" type="curve" smooth="yes"/>
      <point x="201" y="376" type="line" smooth="yes"/>
      <point x="206" y="376"/>
      <point x="209" y="374"/>
      <point x="209" y="370" type="curve" smooth="yes"/>
      <point x="209" y="292" type="line" smooth="yes"/>
      <point x="209" y="281"/>
      <point x="213" y="276"/>
      <point x="226" y="276" type="curve" smooth="yes"/>
      <point x="333" y="276" type="line" smooth="yes"/>
      <point x="348" y="276"/>
      <point x="354" y="281"/>
      <point x="354" y="294" type="curve" smooth="yes"/>
      <point x="354" y="368" type="line" smooth="yes"/>
      <point x="354" y="374"/>
      <point x="357" y="376"/>
      <point x="362" y="376" type="curve" smooth="yes"/>
      <point x="406" y="376" type="line" smooth="yes"/>
      <point x="417" y="376"/>
      <point x="421" y="382"/>
      <point x="421" y="390" type="curve" smooth="yes"/>
      <point x="421" y="459" type="line" smooth="yes"/>
      <point x="421" y="468"/>
      <point x="416" y="471"/>
      <point x="408" y="471" type="curve" smooth="yes"/>
      <point x="361" y="471" type="line" smooth="yes"/>
      <point x="357" y="471"/>
      <point x="354" y="474"/>
      <point x="354" y="479" type="curve" smooth="yes"/>
      <point x="354" y="730" type="line" smooth="yes"/>
      <point x="354" y="738"/>
      <point x="350" y="743"/>
      <point x="342" y="743" type="curve" smooth="yes"/>
      <point x="239" y="743" type="line" smooth="yes"/>
      <point x="222" y="743"/>
      <point x="218" y="740"/>
    </contour>
    <contour>
      <point x="206" y="471" type="curve" smooth="yes"/>
      <point x="121" y="471" type="line" smooth="yes"/>
      <point x="113" y="471"/>
      <point x="113" y="474"/>
      <point x="116" y="479" type="curve"/>
      <point x="202" y="599" type="line" smooth="yes"/>
      <point x="209" y="609"/>
      <point x="211" y="609"/>
      <point x="211" y="597" type="curve" smooth="yes"/>
      <point x="211" y="475" type="line" smooth="yes"/>
      <point x="211" y="473"/>
      <point x="209" y="471"/>
    </contour>
  </outline>
</glyph>
<glyph name="nine.dnom" format="2">
  <advance width="404"/>
  <outline>
    <contour>
      <point x="189" y="-10" type="curve"/>
      <point x="189" y="-10" type="line"/>
      <point x="316" y="-10"/>
      <point x="404" y="84"/>
      <point x="404" y="240" type="curve" smooth="yes"/>
      <point x="404" y="376"/>
      <point x="324" y="467"/>
      <point x="195" y="467" type="curve" smooth="yes"/>
      <point x="85" y="467"/>
      <point x="0" y="401"/>
      <point x="0" y="311" type="curve" smooth="yes"/>
      <point x="0" y="229"/>
      <point x="69" y="172"/>
      <point x="167" y="172" type="curve" smooth="yes"/>
      <point x="202" y="172"/>
      <point x="222" y="179"/>
      <point x="247" y="189" type="curve" smooth="yes"/>
      <point x="260" y="194"/>
      <point x="263" y="193"/>
      <point x="263" y="177" type="curve" smooth="yes"/>
      <point x="263" y="122"/>
      <point x="233" y="87"/>
      <point x="189" y="87" type="curve" smooth="yes"/>
      <point x="160" y="87"/>
      <point x="148" y="103"/>
      <point x="134" y="126" type="curve"/>
      <point x="132" y="130"/>
      <point x="128" y="137"/>
      <point x="120" y="134" type="curve"/>
      <point x="30" y="108" type="line" smooth="yes"/>
      <point x="21" y="105"/>
      <point x="21" y="98"/>
      <point x="23" y="91" type="curve"/>
      <point x="30" y="51"/>
      <point x="94" y="-10"/>
    </contour>
    <contour>
      <point x="199" y="262" type="curve"/>
      <point x="199" y="262" type="line"/>
      <point x="170" y="262"/>
      <point x="141" y="280"/>
      <point x="141" y="316" type="curve" smooth="yes"/>
      <point x="141" y="352"/>
      <point x="167" y="376"/>
      <point x="200" y="376" type="curve" smooth="yes"/>
      <point x="236" y="376"/>
      <point x="262" y="347"/>
      <point x="262" y="296" type="curve" smooth="yes"/>
      <point x="262" y="285"/>
      <point x="260" y="282"/>
      <point x="255" y="279" type="curve"/>
      <point x="245" y="271"/>
      <point x="220" y="262"/>
    </contour>
  </outline>
</glyph>
<glyph name="nine.numr" format="2">
  <advance width="404"/>
  <outline>
    <contour>
      <point x="189" y="275" type="curve"/>
      <point x="189" y="275" type="line"/>
      <point x="316" y="275"/>
      <point x="404" y="369"/>
      <point x="404" y="525" type="curve" smooth="yes"/>
      <point x="404" y="661"/>
      <point x="324" y="752"/>
      <point x="195" y="752" type="curve" smooth="yes"/>
      <point x="85" y="752"/>
      <point x="0" y="686"/>
      <point x="0" y="596" type="curve" smooth="yes"/>
      <point x="0" y="514"/>
      <point x="69" y="457"/>
      <point x="167" y="457" type="curve" smooth="yes"/>
      <point x="202" y="457"/>
      <point x="222" y="464"/>
      <point x="247" y="474" type="curve" smooth="yes"/>
      <point x="260" y="479"/>
      <point x="263" y="478"/>
      <point x="263" y="462" type="curve" smooth="yes"/>
      <point x="263" y="407"/>
      <point x="233" y="372"/>
      <point x="189" y="372" type="curve" smooth="yes"/>
      <point x="160" y="372"/>
      <point x="148" y="388"/>
      <point x="134" y="411" type="curve"/>
      <point x="132" y="415"/>
      <point x="128" y="422"/>
      <point x="120" y="419" type="curve"/>
      <point x="30" y="393" type="line" smooth="yes"/>
      <point x="21" y="390"/>
      <point x="21" y="383"/>
      <point x="23" y="376" type="curve"/>
      <point x="30" y="336"/>
      <point x="94" y="275"/>
    </contour>
    <contour>
      <point x="199" y="547" type="curve"/>
      <point x="199" y="547" type="line"/>
      <point x="170" y="547"/>
      <point x="141" y="565"/>
      <point x="141" y="601" type="curve" smooth="yes"/>
      <point x="141" y="637"/>
      <point x="167" y="661"/>
      <point x="200" y="661" type="curve" smooth="yes"/>
      <point x="236" y="661"/>
      <point x="262" y="632"/>
      <point x="262" y="581" type="curve" smooth="yes"/>
      <point x="262" y="570"/>
      <point x="260" y="567"/>
      <point x="255" y="564" type="curve"/>
      <point x="245" y="556"/>
      <point x="220" y="547"/>
    </contour>
  </outline>
</glyph>
<glyph name="one.numr" format="2">
  <advance width="299"/>
  <outline>
    <contour>
      <point x="278" y="379" type="curve"/>
      <point x="278" y="379" type="line"/>
      <point x="221" y="379" type="line" smooth="yes"/>
      <point x="217" y="379"/>
      <point x="214" y="382"/>
      <point x="214" y="387" type="curve" smooth="yes"/>
      <point x="214" y="730" type="line" smooth="yes"/>
      <point x="214" y="738"/>
      <point x="210" y="743"/>
      <point x="203" y="743" type="curve" smooth="yes"/>
      <point x="149" y="743" type="line" smooth="yes"/>
      <point x="137" y="743"/>
      <point x="131" y="740"/>
      <point x="118" y="734" type="curve" smooth="yes"/>
      <point x="5" y="677" type="line" smooth="yes"/>
      <point x="-4" y="673"/>
      <point x="-7" y="670"/>
      <point x="-7" y="659" type="curve" smooth="yes"/>
      <point x="-7" y="606" type="line" smooth="yes"/>
      <point x="-7" y="594"/>
      <point x="-1" y="589"/>
      <point x="10" y="592" type="curve"/>
      <point x="61" y="603" type="line" smooth="yes"/>
      <point x="69" y="605"/>
      <point x="71" y="602"/>
      <point x="71" y="595" type="curve" smooth="yes"/>
      <point x="71" y="385" type="line" smooth="yes"/>
      <point x="71" y="381"/>
      <point x="68" y="379"/>
      <point x="64" y="379" type="curve" smooth="yes"/>
      <point x="8" y="379" type="line" smooth="yes"/>
      <point x="-1" y="379"/>
      <point x="-6" y="376"/>
      <point x="-6" y="367" type="curve" smooth="yes"/>
      <point x="-6" y="289" type="line" smooth="yes"/>
      <point x="-6" y="281"/>
      <point x="-2" y="276"/>
      <point x="9" y="276" type="curve" smooth="yes"/>
      <point x="276" y="276" type="line" smooth="yes"/>
      <point x="287" y="276"/>
      <point x="292" y="282"/>
      <point x="292" y="290" type="curve" smooth="yes"/>
      <point x="292" y="367" type="line" smooth="yes"/>
      <point x="292" y="376"/>
      <point x="287" y="379"/>
    </contour>
  </outline>
</glyph>
<glyph name="seven.dnom" format="2">
  <advance width="365"/>
  <outline>
    <contour>
      <point x="359" y="467" type="curve" smooth="yes"/>
      <point x="46" y="467" type="line" smooth="yes"/>
      <point x="34" y="467"/>
      <point x="27" y="463"/>
      <point x="27" y="456" type="curve"/>
      <point x="18" y="369" type="line" smooth="yes"/>
      <point x="17" y="360"/>
      <point x="22" y="353"/>
      <point x="35" y="353" type="curve" smooth="yes"/>
      <point x="227" y="353" type="line" smooth="yes"/>
      <point x="237" y="353"/>
      <point x="236" y="348"/>
      <point x="232" y="342" type="curve" smooth="yes"/>
      <point x="135" y="186"/>
      <point x="104" y="111"/>
      <point x="76" y="18" type="curve" smooth="yes"/>
      <point x="73" y="7"/>
      <point x="77" y="0"/>
      <point x="88" y="0" type="curve" smooth="yes"/>
      <point x="221" y="0" type="line" smooth="yes"/>
      <point x="231" y="0"/>
      <point x="236" y="6"/>
      <point x="237" y="21" type="curve" smooth="yes"/>
      <point x="241" y="106"/>
      <point x="289" y="255"/>
      <point x="360" y="364" type="curve" smooth="yes"/>
      <point x="367" y="375"/>
      <point x="379" y="398"/>
      <point x="380" y="407" type="curve"/>
      <point x="382" y="449" type="line"/>
      <point x="383" y="459"/>
      <point x="375" y="467"/>
    </contour>
  </outline>
</glyph>
<glyph name="seven.numr" format="2">
  <advance width="365"/>
  <outline>
    <contour>
      <point x="359" y="742" type="curve" smooth="yes"/>
      <point x="46" y="742" type="line" smooth="yes"/>
      <point x="34" y="742"/>
      <point x="27" y="738"/>
      <point x="27" y="731" type="curve"/>
      <point x="18" y="644" type="line" smooth="yes"/>
      <point x="17" y="635"/>
      <point x="22" y="628"/>
      <point x="35" y="628" type="curve" smooth="yes"/>
      <point x="227" y="628" type="line" smooth="yes"/>
      <point x="237" y="628"/>
      <point x="236" y="623"/>
      <point x="232" y="617" type="curve" smooth="yes"/>
      <point x="135" y="461"/>
      <point x="104" y="386"/>
      <point x="76" y="293" type="curve" smooth="yes"/>
      <point x="73" y="282"/>
      <point x="77" y="275"/>
      <point x="88" y="275" type="curve" smooth="yes"/>
      <point x="221" y="275" type="line" smooth="yes"/>
      <point x="231" y="275"/>
      <point x="236" y="281"/>
      <point x="237" y="296" type="curve" smooth="yes"/>
      <point x="241" y="381"/>
      <point x="289" y="530"/>
      <point x="360" y="639" type="curve" smooth="yes"/>
      <point x="367" y="650"/>
      <point x="379" y="673"/>
      <point x="380" y="682" type="curve"/>
      <point x="382" y="724" type="line"/>
      <point x="383" y="734"/>
      <point x="375" y="742"/>
    </contour>
  </outline>
</glyph>
<glyph name="six.dnom" format="2">
  <advance width="404"/>
  <outline>
    <contour>
      <point x="213" y="467" type="curve"/>
      <point x="213" y="467" type="line"/>
      <point x="86" y="467"/>
      <point x="-3" y="373"/>
      <point x="-3" y="216" type="curve" smooth="yes"/>
      <point x="-3" y="81"/>
      <point x="78" y="-10"/>
      <point x="207" y="-10" type="curve" smooth="yes"/>
      <point x="317" y="-10"/>
      <point x="402" y="56"/>
      <point x="402" y="146" type="curve" smooth="yes"/>
      <point x="402" y="228"/>
      <point x="333" y="285"/>
      <point x="235" y="285" type="curve" smooth="yes"/>
      <point x="200" y="285"/>
      <point x="180" y="277"/>
      <point x="155" y="267" type="curve" smooth="yes"/>
      <point x="142" y="262"/>
      <point x="139" y="264"/>
      <point x="139" y="280" type="curve" smooth="yes"/>
      <point x="139" y="335"/>
      <point x="169" y="370"/>
      <point x="213" y="370" type="curve" smooth="yes"/>
      <point x="242" y="370"/>
      <point x="254" y="354"/>
      <point x="268" y="331" type="curve"/>
      <point x="270" y="327"/>
      <point x="274" y="320"/>
      <point x="282" y="323" type="curve"/>
      <point x="372" y="349" type="line" smooth="yes"/>
      <point x="381" y="352"/>
      <point x="381" y="359"/>
      <point x="379" y="366" type="curve"/>
      <point x="372" y="406"/>
      <point x="308" y="467"/>
    </contour>
    <contour>
      <point x="203" y="194" type="curve"/>
      <point x="203" y="194" type="line"/>
      <point x="232" y="194"/>
      <point x="261" y="177"/>
      <point x="261" y="140" type="curve" smooth="yes"/>
      <point x="261" y="105"/>
      <point x="235" y="81"/>
      <point x="202" y="81" type="curve" smooth="yes"/>
      <point x="165" y="81"/>
      <point x="140" y="110"/>
      <point x="140" y="160" type="curve" smooth="yes"/>
      <point x="140" y="172"/>
      <point x="142" y="174"/>
      <point x="147" y="178" type="curve" smooth="yes"/>
      <point x="157" y="186"/>
      <point x="182" y="194"/>
    </contour>
  </outline>
</glyph>
<glyph name="six.numr" format="2">
  <advance width="404"/>
  <outline>
    <contour>
      <point x="213" y="752" type="curve"/>
      <point x="213" y="752" type="line"/>
      <point x="86" y="752"/>
      <point x="-3" y="658"/>
      <point x="-3" y="501" type="curve" smooth="yes"/>
      <point x="-3" y="366"/>
      <point x="78" y="275"/>
      <point x="207" y="275" type="curve" smooth="yes"/>
      <point x="317" y="275"/>
      <point x="402" y="341"/>
      <point x="402" y="431" type="curve" smooth="yes"/>
      <point x="402" y="513"/>
      <point x="333" y="570"/>
      <point x="235" y="570" type="curve" smooth="yes"/>
      <point x="200" y="570"/>
      <point x="180" y="562"/>
      <point x="155" y="552" type="curve" smooth="yes"/>
      <point x="142" y="547"/>
      <point x="139" y="549"/>
      <point x="139" y="565" type="curve" smooth="yes"/>
      <point x="139" y="620"/>
      <point x="169" y="655"/>
      <point x="213" y="655" type="curve" smooth="yes"/>
      <point x="242" y="655"/>
      <point x="254" y="639"/>
      <point x="268" y="616" type="curve"/>
      <point x="270" y="612"/>
      <point x="274" y="605"/>
      <point x="282" y="608" type="curve"/>
      <point x="372" y="634" type="line" smooth="yes"/>
      <point x="381" y="637"/>
      <point x="381" y="644"/>
      <point x="379" y="651" type="curve"/>
      <point x="372" y="691"/>
      <point x="308" y="752"/>
    </contour>
    <contour>
      <point x="203" y="479" type="curve"/>
      <point x="203" y="479" type="line"/>
      <point x="232" y="479"/>
      <point x="261" y="462"/>
      <point x="261" y="425" type="curve" smooth="yes"/>
      <point x="261" y="390"/>
      <point x="235" y="366"/>
      <point x="202" y="366" type="curve" smooth="yes"/>
      <point x="165" y="366"/>
      <point x="140" y="395"/>
      <point x="140" y="445" type="curve" smooth="yes"/>
      <point x="140" y="457"/>
      <point x="142" y="459"/>
      <point x="147" y="463" type="curve" smooth="yes"/>
      <point x="157" y="471"/>
      <point x="182" y="479"/>
    </contour>
  </outline>
</glyph>
<glyph name="two.dnom" format="2">
  <advance width="384"/>
  <outline>
    <contour>
      <point x="145" y="206" type="curve" smooth="yes"/>
      <point x="39" y="119" type="line" smooth="yes"/>
      <point x="4" y="90"/>
      <point x="2" y="84"/>
      <point x="2" y="78" type="curve" smooth="yes"/>
      <point x="2" y="16" type="line" smooth="yes"/>
      <point x="2" y="3"/>
      <point x="7" y="0"/>
      <point x="19" y="0" type="curve" smooth="yes"/>
      <point x="371" y="0" type="line" smooth="yes"/>
      <point x="382" y="0"/>
      <point x="387" y="6"/>
      <point x="387" y="14" type="curve" smooth="yes"/>
      <point x="387" y="104" type="line" smooth="yes"/>
      <point x="387" y="113"/>
      <point x="381" y="116"/>
      <point x="372" y="116" type="curve" smooth="yes"/>
      <point x="193" y="116" type="line" smooth="yes"/>
      <point x="182" y="116"/>
      <point x="183" y="120"/>
      <point x="189" y="124" type="curve" smooth="yes"/>
      <point x="299" y="198" type="line" smooth="yes"/>
      <point x="361" y="239"/>
      <point x="382" y="276"/>
      <point x="382" y="325" type="curve" smooth="yes"/>
      <point x="382" y="413"/>
      <point x="311" y="473"/>
      <point x="197" y="473" type="curve" smooth="yes"/>
      <point x="112" y="473"/>
      <point x="54" y="438"/>
      <point x="7" y="362" type="curve" smooth="yes"/>
      <point x="2" y="353"/>
      <point x="3" y="342"/>
      <point x="13" y="337" type="curve" smooth="yes"/>
      <point x="88" y="300" type="line" smooth="yes"/>
      <point x="98" y="295"/>
      <point x="105" y="297"/>
      <point x="108" y="303" type="curve" smooth="yes"/>
      <point x="136" y="353"/>
      <point x="157" y="372"/>
      <point x="189" y="372" type="curve" smooth="yes"/>
      <point x="224" y="372"/>
      <point x="244" y="351"/>
      <point x="244" y="323" type="curve" smooth="yes"/>
      <point x="244" y="293"/>
      <point x="232" y="278"/>
    </contour>
  </outline>
</glyph>
<glyph name="zero.dnom" format="2">
  <advance width="416"/>
  <outline>
    <contour>
      <point x="207" y="469" type="curve"/>
      <point x="207" y="469" type="line"/>
      <point x="86" y="469"/>
      <point x="-2" y="366"/>
      <point x="-2" y="227" type="curve" smooth="yes"/>
      <point x="-2" y="89"/>
      <point x="84" y="-10"/>
      <point x="207" y="-10" type="curve" smooth="yes"/>
      <point x="329" y="-10"/>
      <point x="414" y="89"/>
      <point x="414" y="227" type="curve" smooth="yes"/>
      <point x="414" y="366"/>
      <point x="327" y="469"/>
    </contour>
    <contour>
      <point x="206" y="88" type="curve"/>
      <point x="206" y="88" type="line"/>
      <point x="160" y="88"/>
      <point x="143" y="125"/>
      <point x="143" y="226" type="curve" smooth="yes"/>
      <point x="143" y="331"/>
      <point x="161" y="372"/>
      <point x="206" y="372" type="curve" smooth="yes"/>
      <point x="251" y="372"/>
      <point x="269" y="332"/>
      <point x="269" y="226" type="curve" smooth="yes"/>
      <point x="269" y="125"/>
      <point x="253" y="88"/>
    </contour>
  </outline>
</glyph>
